<svg version="1.1" id="Layer_1" xmlns="http://www.w3.org/2000/svg" xmlns:xlink="http://www.w3.org/1999/xlink" viewBox="0 0 512 512" xml:space="preserve" width="64px" height="64px" fill="#000000"><g id="SVGRepo_bgCarrier" stroke-width="0"></g><g id="SVGRepo_tracerCarrier" stroke-linecap="round" stroke-linejoin="round"></g><g id="SVGRepo_iconCarrier"> <path style="fill:#DDDAC5;" d="M8.533,435.2v42.667C8.533,496.718,23.815,512,42.667,512h426.667 c18.851,0,34.133-15.282,34.133-34.133V435.2H8.533z"></path> <path style="fill:#E8E6D9;" d="M8.533,85.333V435.2c0,18.851,15.282,34.133,34.133,34.133h426.667 c18.851,0,34.133-15.282,34.133-34.133V85.333H8.533z"></path> <path style="fill:#66BF00;" d="M503.467,76.8c0-18.851-15.282-34.133-34.133-34.133H42.667c-18.851,0-34.133,15.282-34.133,34.133 V128h494.933V76.8z"></path> <rect x="8.533" y="128" style="fill:#DDDAC5;" width="494.933" height="17.067"></rect> <path style="fill:#B9873C;" d="M145.067,102.4H128c-9.426,0-17.067-7.641-17.067-17.067V17.067C110.933,7.641,118.574,0,128,0 h17.067c9.426,0,17.067,7.641,17.067,17.067v68.267C162.133,94.759,154.493,102.4,145.067,102.4z"></path> <path style="fill:#FFC552;" d="M145.067,93.867H128c-9.426,0-17.067-7.641-17.067-17.067V17.067C110.933,7.641,118.574,0,128,0 h17.067c9.426,0,17.067,7.641,17.067,17.067V76.8C162.133,86.226,154.493,93.867,145.067,93.867z"></path> <path style="fill:#B9873C;" d="M264.533,102.4h-17.067c-9.426,0-17.067-7.641-17.067-17.067V17.067C230.4,7.641,238.041,0,247.467,0 h17.067c9.426,0,17.067,7.641,17.067,17.067v68.267C281.6,94.759,273.959,102.4,264.533,102.4z"></path> <path style="fill:#FFC552;" d="M264.533,93.867h-17.067c-9.426,0-17.067-7.641-17.067-17.067V17.067 C230.4,7.641,238.041,0,247.467,0h17.067c9.426,0,17.067,7.641,17.067,17.067V76.8C281.6,86.226,273.959,93.867,264.533,93.867z"></path> <path style="fill:#B9873C;" d="M384,102.4h-17.067c-9.426,0-17.067-7.641-17.067-17.067V17.067C349.867,7.641,357.507,0,366.933,0 H384c9.426,0,17.067,7.641,17.067,17.067v68.267C401.067,94.759,393.426,102.4,384,102.4z"></path> <path style="fill:#FFC552;" d="M384,93.867h-17.067c-9.426,0-17.067-7.641-17.067-17.067V17.067C349.867,7.641,357.507,0,366.933,0 H384c9.426,0,17.067,7.641,17.067,17.067V76.8C401.067,86.226,393.426,93.867,384,93.867z"></path> <path style="fill:#72CCC5;" d="M256,162.667c-74.991,0-136,61.009-136,136s61.009,136,136,136s136-61.009,136-136 S330.991,162.667,256,162.667z"></path> <path style="fill:#11BBA3;" d="M289.6,401.067c-74.991,0-136-61.009-136-136c0-28.933,9.088-55.779,24.55-77.85 C143.019,211.831,120,252.609,120,298.667c0,74.991,61.009,136,136,136c46.058,0,86.835-23.019,111.45-58.15 C345.379,391.979,318.533,401.067,289.6,401.067z"></path> <g> <path style="fill:#66BF00;" d="M323.323,279.07L318.3,264h14.5c2.675,0,5.173-1.337,6.656-3.563l17.067-25.6 c0.307-0.461,0.566-0.953,0.772-1.467l5.142-12.858c1.084-2.707,0.607-5.79-1.243-8.045 C335.231,180.819,296.89,162.667,256,162.667c-25.42,0-50.222,7.068-71.724,20.442c-4.99,3.103-4.93,10.63,0.11,13.653 l24.832,14.899c0.176,0.106,0.355,0.204,0.539,0.295l26.028,13.014l-12.041,18.059c-1.593,2.388-1.782,5.447-0.499,8.015 l17.067,34.133c1.355,2.71,4.125,4.422,7.155,4.422h29.852l14.691,22.037c3.111,4.668,10.201,4.669,13.312,0l17.067-25.6 C323.759,283.983,324.103,281.412,323.323,279.07z"></path> <path style="fill:#66BF00;" d="M246.089,320.689c-1.355-2.71-4.125-4.422-7.155-4.422h-30.82l-23.257-23.257 c-1.5-1.501-3.535-2.343-5.657-2.343h-23.178l-22.546-15.03c-2.304-1.536-5.238-1.771-7.757-0.622 c-2.519,1.149-4.266,3.519-4.617,6.266c-0.733,5.73-1.103,11.58-1.103,17.388c0,26.085,7.407,51.429,21.422,73.294 c13.639,21.281,32.86,38.32,55.582,49.276c1.097,0.529,2.285,0.794,3.474,0.794c1.058,0,2.117-0.21,3.115-0.631 c2.117-0.895,3.748-2.658,4.475-4.839l12.854-38.563c0.671-2.013,0.514-4.21-0.434-6.108l-2.745-5.489H256 c5.835,0,9.771-6.348,7.155-11.578L246.089,320.689z"></path> <path style="fill:#66BF00;" d="M389.27,296.363c-1.76-1.571-4.126-2.283-6.458-1.951l-34.078,4.868 c-2.015,0.288-3.844,1.333-5.116,2.923l-34.133,42.667c-2.177,2.72-2.342,6.537-0.41,9.435l16.189,24.284l4.115,20.576 c1.162,5.804,8.335,8.384,12.925,4.611c30.439-25.022,48.53-61.914,49.635-101.218C392.007,300.199,391.03,297.933,389.27,296.363z "></path> </g> <g> <path style="fill:#58AB23;" d="M156.027,290.667h-0.004l-22.546-15.03c-4.859-3.239-11.635-0.133-12.373,5.643 c-0.733,5.73-1.103,11.58-1.103,17.388c0,26.085,7.407,51.429,21.422,73.294c13.639,21.281,32.86,38.32,55.582,49.276 c4.284,2.065,9.564-0.176,11.065-4.676l11.626-34.878C187.129,362.087,163.406,329.245,156.027,290.667z"></path> <path style="fill:#58AB23;" d="M329.38,399.163c0.551,2.756,2.509,5.022,5.156,5.966c0.876,0.313,1.785,0.465,2.687,0.465 c1.826,0,3.628-0.625,5.082-1.82c9.73-7.999,18.192-17.215,25.247-27.331c-11.755,8.252-24.869,14.689-38.934,18.91L329.38,399.163 z"></path> </g> </g></svg>