<svg height="64px" width="64px" version="1.1" id="Layer_1" xmlns="http://www.w3.org/2000/svg" xmlns:xlink="http://www.w3.org/1999/xlink" viewBox="0 0 512 512" xml:space="preserve" fill="#000000"><g id="SVGRepo_bgCarrier" stroke-width="0"></g><g id="SVGRepo_tracerCarrier" stroke-linecap="round" stroke-linejoin="round"></g><g id="SVGRepo_iconCarrier"> <path style="fill:#C6D9B0;" d="M193.05,384l-2.091-10.249c-4.83-23.723-25.933-40.951-50.159-40.951 c-16.009,0-30.865,7.509-40.73,20.608l-22.946,30.438L76.8,217.609L123.733,76.8H320V384H193.05z M147.618,162.398 c-9.822,26.982-10.325,67.78,7.714,93.559c8.704,12.433,25.924,27.238,58.53,27.238c11.716,0,22.195-2.492,31.155-7.424l11.529-6.34 l-0.572-1.015l4.369-6.537c6.622-9.899,9.199-21.939,7.671-35.78c-4.429-39.808-33.596-45.79-74.3-49.903 C173.542,174.157,156.169,172.382,147.618,162.398z"></path> <path style="fill:#A0BF7C;" d="M213.862,283.204c-32.597,0-49.818-14.805-58.522-27.23c-13.167-18.816-17.826-47.215-12.476-75.989 l2.773-14.908l14.225,5.231c9.199,3.379,21.137,4.591,33.766,5.871c32.666,3.319,69.615,7.083,74.368,49.929 c1.092,9.779,0.034,18.935-3.132,27.213l-5.709,14.899l2.637,1.783l-22.741,8.815C231.586,281.728,223.113,283.204,213.862,283.204z "></path> <polygon style="fill:#788F5D;" points="12.8,384 12.8,188.979 68.89,76.8 123.733,76.8 76.8,217.6 77.124,384 "></polygon> <path style="fill:#A7B0C0;" d="M140.8,435.2c-28.237,0-51.2-22.963-51.2-51.2s22.963-51.2,51.2-51.2S192,355.763,192,384 S169.037,435.2,140.8,435.2z"></path> <path style="fill:#788F5D;" d="M449.05,384l-2.091-10.249c-4.83-23.723-25.933-40.951-50.159-40.951s-45.329,17.229-50.159,40.951 L344.55,384H320V243.2h89.6l89.6,22.409V384H449.05z"></path> <path style="fill:#A7B0C0;" d="M396.8,435.2c-28.237,0-51.2-22.963-51.2-51.2s22.963-51.2,51.2-51.2S448,355.763,448,384 S425.037,435.2,396.8,435.2z"></path> <polygon style="fill:#C5DFE2;" points="411.093,243.567 320,243.14 320,128 443.87,128 498.867,265.506 "></polygon> <g> <path style="fill:#573A32;" d="M280.738,224.7c-5.914-53.154-52.053-57.822-85.734-61.227c-15.949-1.621-32.435-3.302-37.666-9.404 c-2.978-3.473-7.586-5.052-12.015-4.275c-4.471,0.828-8.183,3.951-9.737,8.226c-10.624,29.175-12.254,74.547,9.259,105.276 c10.453,14.925,30.899,32.7,69.009,32.7c14.438,0,26.889-3.268,37.316-9.003c2.202,5.581,3.772,12.331,4.506,21.257 c0.546,6.673,6.153,11.75,12.749,11.75c0.35,0,0.7-0.026,1.067-0.051c7.04-0.572,12.288-6.75,11.716-13.798 c-1.323-16.119-5.06-27.938-10.231-37.137C279.083,256.896,282.633,241.877,280.738,224.7z M252.928,248.747 c-5.666-4.292-11.674-7.893-17.673-11.366c-11.588-6.699-23.578-13.628-34.261-27.179c-4.361-5.521-12.416-6.477-17.971-2.125 c-5.547,4.378-6.502,12.425-2.125,17.971c13.722,17.399,28.501,25.95,41.54,33.502c4.429,2.56,8.414,4.898,12.015,7.347 c-5.845,2.27-12.715,3.507-20.574,3.507c-21.751,0-37.914-7.322-48.034-21.777c-12.425-17.749-14.49-44.203-10.377-66.304 c10.735,3.951,23.629,5.248,36.966,6.596c36.873,3.746,59.503,8.201,62.874,38.596 C256.188,235.597,255.249,242.671,252.928,248.747z"></path> <path style="fill:#573A32;" d="M510.174,259.302l-51.2-128.009c-3.891-9.719-13.303-16.094-23.774-16.094H384V89.6h-25.6v25.6 h-25.6h-0.009V89.6c0-14.14-11.46-25.6-25.6-25.6H76.8c-9.694,0-18.56,5.478-22.895,14.148l-51.2,102.4 C0.93,184.107,0,188.023,0,192v179.2c0,14.14,11.46,25.6,25.6,25.6h52.497c5.948,29.175,31.795,51.2,62.703,51.2 s56.755-22.025,62.703-51.2c0,0,124.518,0,129.297,0h1.297c5.948,29.175,31.795,51.2,62.703,51.2s56.755-22.025,62.703-51.2H486.4 c14.14,0,25.6-11.46,25.6-25.6V268.809C512,265.557,511.377,262.323,510.174,259.302z M64.666,213.547 c-0.444,1.331-0.666,2.705-0.666,4.079L64.299,371.2H25.6V192L76.8,89.6h29.175L64.666,213.547z M140.8,422.4 c-21.205,0-38.4-17.195-38.4-38.4c0-21.205,17.195-38.4,38.4-38.4s38.4,17.195,38.4,38.4C179.2,405.205,162.005,422.4,140.8,422.4z M203.503,371.2c-5.948-29.175-31.795-51.2-62.703-51.2c-20.873,0-39.262,10.189-50.953,25.702L89.6,219.674L132.958,89.6h174.234 l0.009,281.6H203.503z M332.8,140.8h102.4l42.487,106.223l-64.99-16.247L332.8,230.4V140.8z M396.8,422.4 c-21.205,0-38.4-17.195-38.4-38.4c0-21.205,17.195-38.4,38.4-38.4c21.205,0,38.4,17.195,38.4,38.4 C435.2,405.205,418.005,422.4,396.8,422.4z M486.4,294.4h-25.6V320h25.6v51.2h-26.897c-5.948-29.175-31.795-51.2-62.703-51.2 s-56.755,22.025-62.703,51.2H332.8V256h75.221l78.379,19.601V294.4z"></path> </g> </g></svg>