<svg version="1.1" id="Layer_1" xmlns="http://www.w3.org/2000/svg" xmlns:xlink="http://www.w3.org/1999/xlink" viewBox="0 0 512 512" xml:space="preserve" width="64px" height="64px" fill="#000000"><g id="SVGRepo_bgCarrier" stroke-width="0"></g><g id="SVGRepo_tracerCarrier" stroke-linecap="round" stroke-linejoin="round"></g><g id="SVGRepo_iconCarrier"> <path style="fill:#66BF00;" d="M366.933,102.4H145.067V17.067C145.067,7.641,152.707,0,162.133,0h187.733 c9.426,0,17.067,7.641,17.067,17.067V102.4z"></path> <path style="fill:#58AB23;" d="M196.267,0h-34.133c-9.425,0-17.067,7.642-17.067,17.067V102.4H179.2V17.067 C179.2,7.642,186.842,0,196.267,0z"></path> <path style="fill:#508913;" d="M273.067,42.667h-8.533v-8.533c0-4.713-3.821-8.533-8.533-8.533c-4.713,0-8.533,3.821-8.533,8.533 v8.533h-8.533c-4.713,0-8.533,3.821-8.533,8.533s3.821,8.533,8.533,8.533h8.533v8.533c0,4.713,3.821,8.533,8.533,8.533 c4.713,0,8.533-3.821,8.533-8.533v-8.533h8.533c4.713,0,8.533-3.821,8.533-8.533S277.779,42.667,273.067,42.667z"></path> <path style="fill:#E8E6D9;" d="M384,512H128c-18.851,0-34.133-15.282-34.133-34.133v-358.4c0-18.851,15.282-34.133,34.133-34.133 h256c18.851,0,34.133,15.282,34.133,34.133v358.4C418.133,496.718,402.851,512,384,512z"></path> <g> <path style="fill:#DDDAC5;" d="M128,477.867v-358.4c0-18.851,15.282-34.133,34.133-34.133H128 c-18.851,0-34.133,15.282-34.133,34.133v358.4C93.867,496.718,109.149,512,128,512h34.133C143.282,512,128,496.718,128,477.867z"></path> <rect x="93.867" y="290.133" style="fill:#DDDAC5;" width="324.267" height="68.267"></rect> <rect x="93.867" y="153.6" style="fill:#DDDAC5;" width="324.267" height="68.267"></rect> </g> <g> <rect x="93.867" y="290.133" style="fill:#C6C19F;" width="34.133" height="68.267"></rect> <rect x="93.867" y="153.6" style="fill:#C6C19F;" width="34.133" height="68.267"></rect> </g> <path style="fill:#66BF00;" d="M226.863,175.089c-2.947-4.05-9.058-4.368-12.412-0.65c-5.62,6.234-33.702,38.261-34.665,56.635 c-0.53,10.101,2.906,19.803,9.673,27.319c6.769,7.517,16.059,11.948,26.159,12.477c0.678,0.036,1.355,0.054,2.028,0.054 c9.365,0,18.279-3.414,25.291-9.728c7.517-6.768,11.948-16.058,12.477-26.158C256.378,216.665,231.799,181.876,226.863,175.089z"></path> <path style="fill:#58AB23;" d="M225.647,261.265c-0.674,0-1.35-0.018-2.028-0.054c-10.101-0.529-19.391-4.96-26.159-12.477 c-6.768-7.517-10.203-17.219-9.673-27.319c0.643-12.269,13.374-30.619,23.439-43.318c-9.239,10.676-30.602,36.992-31.44,52.978 c-0.53,10.101,2.906,19.803,9.673,27.319c6.769,7.517,16.059,11.948,26.159,12.477c0.678,0.036,1.355,0.054,2.028,0.054 c9.365,0,18.279-3.414,25.291-9.728c2.996-2.698,5.493-5.802,7.457-9.193C243.468,258.013,234.774,261.265,225.647,261.265z"></path> <path style="fill:#66BF00;" d="M323.051,233.857c-1.953-4.604-7.839-6.301-11.945-3.433c-6.88,4.805-41.462,29.674-46.543,47.357 c-5.767,20.067,5.867,41.086,25.934,46.853c3.482,1.001,6.99,1.477,10.443,1.477c16.457,0,31.643-10.825,36.41-27.411 C342.432,281.018,326.332,241.583,323.051,233.857z"></path> <path style="fill:#58AB23;" d="M312.474,315.733c-3.453,0-6.961-0.476-10.443-1.477c-20.067-5.767-31.702-26.785-25.934-46.853 c2.014-7.01,8.669-15.147,16.391-22.718c-11.757,9.826-24.938,22.701-27.924,33.098c-5.767,20.067,5.867,41.086,25.934,46.853 c3.482,1.001,6.99,1.477,10.443,1.477c12.1,0,23.507-5.857,30.597-15.549C325.825,313.889,319.259,315.733,312.474,315.733z"></path> <path style="fill:#508913;" d="M313.213,270.569c-0.19-4.414-3.929-7.834-8.336-7.649c-4.414,0.19-7.839,3.922-7.649,8.336 c0.019,0.43,1.193,41.593-46.595,62.154c-3.376-14.752-8.14-27.596-12.572-39.511c-8.641-23.228-16.102-43.289-12.791-71.39 c0.517-4.388-2.621-8.365-7.008-8.881c-4.406-0.521-8.366,2.62-8.881,7.008c-3.762,31.934,4.713,54.719,13.685,78.841 c7.594,20.415,15.445,41.525,16.067,70.207c0.432,20.004-8.689,35.675-27.115,46.578c-14.597,8.638-29.756,11.002-29.892,11.023 c-4.371,0.644-7.393,4.708-6.749,9.081c0.586,3.977,4.002,6.835,7.904,6.835c0.388,0,0.781-0.028,1.177-0.086 c0.726-0.108,17.994-2.735,35.244-12.809c23.741-13.863,35.991-34.946,35.428-60.967c-0.151-6.992-0.718-13.567-1.567-19.825 c31.244-12.361,45.809-32.409,52.544-47.303C313.749,285.306,313.237,271.163,313.213,270.569z"></path> <path style="fill:#B9873C;" d="M93.867,418.133v59.733C93.867,496.718,109.149,512,128,512h256 c18.851,0,34.133-15.282,34.133-34.133v-59.733H93.867z"></path> <g> <path style="fill:#A3682D;" d="M128,477.867v-59.733H93.867v59.733C93.867,496.718,109.149,512,128,512h34.133 C143.282,512,128,496.718,128,477.867z"></path> <circle style="fill:#A3682D;" cx="153.6" cy="460.8" r="8.533"></circle> <circle style="fill:#A3682D;" cx="221.867" cy="477.867" r="8.533"></circle> <circle style="fill:#A3682D;" cx="273.067" cy="452.267" r="8.533"></circle> <circle style="fill:#A3682D;" cx="315.733" cy="469.333" r="8.533"></circle> <circle style="fill:#A3682D;" cx="366.933" cy="477.867" r="8.533"></circle> </g> </g></svg>