<?xml version="1.0" standalone="no"?><svg xmlns:xlink="http://www.w3.org/1999/xlink" xmlns="http://www.w3.org/2000/svg" viewBox="0 0 1000 333.3298013245033" preserveAspectRatio="xMaxYMax slice"><g transform="scale(0.6622516556291391)"><rect x="0" y="0" width="1510" height="503.3333333333333" fill="#f5f5dc"/><rect x="0" y="0" width="55.925925925925924" height="55.925925925925924" fill="#f5f5dc"/><rect x="167.77777777777777" y="0" width="55.925925925925924" height="55.925925925925924" fill="#f5f5dc"/><path d="M 167.78 27.96 A 27.96 27.96 0 0 1  195.74 55.92 L 167.78 27.96 A 27.96 27.96 0 0 0 195.74 55.92" fill="#a0a49c"/><path d="M 195.74 27.96 A 27.96 27.96 0 0 1  223.70000000000002 55.92 L 195.74 27.96 A 27.96 27.96 0 0 0 223.70000000000002 55.92" fill="#424b56"/><path d="M 279.63 55.93 A 55.93 55.93 0 0 1  335.56 0 L 279.63 55.93 A 55.93 55.93 0 0 0 335.56 0" fill="#909084"/><path d="M 335.56 0 A 55.93 55.93 0 0 1  391.49 55.93 L 335.56 0 A 55.93 55.93 0 0 0 391.49 55.93" fill="#d5d6c4"/><rect x="391.48148148148147" y="0" width="55.925925925925924" height="55.925925925925924" fill="#f5f5dc"/><path d="M 391.48 55.92 A 27.96 27.96 0 0 1  419.44 27.96 L 391.48 55.92 A 27.96 27.96 0 0 0 419.44 27.96" fill="#bebeac"/><rect x="503.3333333333333" y="0" width="55.925925925925924" height="55.925925925925924" fill="#f5f5dc"/><path d="M 503.33 27.96 A 27.96 27.96 0 0 1  531.29 0 L 503.33 27.96 A 27.96 27.96 0 0 0 531.29 0" fill="#c6c6b3"/><path d="M 531.3 27.96 A 27.96 27.96 0 0 1  559.26 0 L 531.3 27.96 A 27.96 27.96 0 0 0 559.26 0" fill="#969689"/><path d="M 503.33 27.96 A 27.96 27.96 0 0 1  531.29 55.92 L 503.33 27.96 A 27.96 27.96 0 0 0 531.29 55.92" fill="#f2f2da"/><rect x="559.2592592592592" y="0" width="55.925925925925924" height="55.925925925925924" fill="#f5f5dc"/><rect x="615.1851851851852" y="0" width="55.925925925925924" height="55.925925925925924" fill="#f5f5dc"/><path d="M 643.15 0 A 27.96 27.96 0 0 1  671.11 27.96 L 643.15 0 A 27.96 27.96 0 0 0 671.11 27.96" fill="#3c4551"/><rect x="727.037037037037" y="0" width="55.925925925925924" height="55.925925925925924" fill="#f5f5dc"/><path d="M 727.04 0 A 27.96 27.96 0 0 1  755 27.96 L 727.04 0 A 27.96 27.96 0 0 0 755 27.96" fill="#cacab7"/><path d="M 727.04 55.92 A 27.96 27.96 0 0 1  755 27.96 L 727.04 55.92 A 27.96 27.96 0 0 0 755 27.96" fill="#bcbcab"/><path d="M 950.74 0 A 55.93 55.93 0 0 1  1006.67 55.93 L 950.74 0 A 55.93 55.93 0 0 0 1006.67 55.93" fill="#768a81"/><path d="M 1006.67 55.93 A 55.93 55.93 0 0 1  1062.6 0 L 1006.67 55.93 A 55.93 55.93 0 0 0 1062.6 0" fill="#9a9a8d"/><path d="M 1118.52 55.93 A 55.93 55.93 0 0 1  1174.45 0 L 1118.52 55.93 A 55.93 55.93 0 0 0 1174.45 0" fill="#bcc5b4"/><rect x="1230.3703703703704" y="0" width="55.925925925925924" height="55.925925925925924" fill="#f5f5dc"/><path d="M 1230.37 27.96 A 27.96 27.96 0 0 1  1258.33 0 L 1230.37 27.96 A 27.96 27.96 0 0 0 1258.33 0" fill="#b5b8ac"/><path d="M 1258.33 27.96 A 27.96 27.96 0 0 1  1286.29 0 L 1258.33 27.96 A 27.96 27.96 0 0 0 1286.29 0" fill="#313b49"/><rect x="1342.2222222222222" y="0" width="55.925925925925924" height="55.925925925925924" fill="#f5f5dc"/><path d="M 1342.22 27.96 A 27.96 27.96 0 0 1  1370.18 55.92 L 1342.22 27.96 A 27.96 27.96 0 0 0 1370.18 55.92" fill="#6d7476"/><rect x="0" y="55.925925925925924" width="55.925925925925924" height="55.925925925925924" fill="#f5f5dc"/><path d="M 0 83.89 A 27.96 27.96 0 0 1  27.96 55.93 L 0 83.89 A 27.96 27.96 0 0 0 27.96 55.93" fill="#454543"/><path d="M 27.96 83.89 A 27.96 27.96 0 0 1  55.92 55.93 L 27.96 83.89 A 27.96 27.96 0 0 0 55.92 55.93" fill="#808076"/><path d="M 0 83.89 A 27.96 27.96 0 0 1  27.96 111.85 L 0 83.89 A 27.96 27.96 0 0 0 27.96 111.85" fill="#323c4a"/><rect x="55.925925925925924" y="55.925925925925924" width="55.925925925925924" height="55.925925925925924" fill="#f5f5dc"/><path d="M 55.93 83.89 A 27.96 27.96 0 0 1  83.89 55.93 L 55.93 83.89 A 27.96 27.96 0 0 0 83.89 55.93" fill="#d8d8c2"/><path d="M 55.93 83.89 A 27.96 27.96 0 0 1  83.89 111.85 L 55.93 83.89 A 27.96 27.96 0 0 0 83.89 111.85" fill="#dadac5"/><rect x="167.77777777777777" y="55.925925925925924" width="55.925925925925924" height="55.925925925925924" fill="#f5f5dc"/><path d="M 167.78 55.93 A 27.96 27.96 0 0 1  195.74 83.89 L 167.78 55.93 A 27.96 27.96 0 0 0 195.74 83.89" fill="#8e9f93"/><path d="M 195.74 83.89 A 27.96 27.96 0 0 1  223.70000000000002 55.93 L 195.74 83.89 A 27.96 27.96 0 0 0 223.70000000000002 55.93" fill="#353f4c"/><path d="M 195.74 111.85 A 27.96 27.96 0 0 1  223.70000000000002 83.89 L 195.74 111.85 A 27.96 27.96 0 0 0 223.70000000000002 83.89" fill="#c8cfbc"/><path d="M 335.56 55.93 A 55.93 55.93 0 0 1  391.49 111.86 L 335.56 55.93 A 55.93 55.93 0 0 0 391.49 111.86" fill="#414140"/><rect x="727.037037037037" y="55.925925925925924" width="55.925925925925924" height="55.925925925925924" fill="#f5f5dc"/><path d="M 755 55.93 A 27.96 27.96 0 0 1  782.96 83.89 L 755 55.93 A 27.96 27.96 0 0 0 782.96 83.89" fill="#b3b3a2"/><path d="M 727.04 111.85 A 27.96 27.96 0 0 1  755 83.89 L 727.04 111.85 A 27.96 27.96 0 0 0 755 83.89" fill="#aaaa9a"/><path d="M 755 83.89 A 27.96 27.96 0 0 1  782.96 111.85 L 755 83.89 A 27.96 27.96 0 0 0 782.96 111.85" fill="#a8a899"/><rect x="782.9629629629629" y="55.925925925925924" width="55.925925925925924" height="55.925925925925924" fill="#f5f5dc"/><path d="M 894.81 111.86 A 55.93 55.93 0 0 1  950.7399999999999 55.93 L 894.81 111.86 A 55.93 55.93 0 0 0 950.7399999999999 55.93" fill="#353f4c"/><rect x="950.7407407407406" y="55.925925925925924" width="55.925925925925924" height="55.925925925925924" fill="#f5f5dc"/><path d="M 950.74 83.89 A 27.96 27.96 0 0 1  978.7 111.85 L 950.74 83.89 A 27.96 27.96 0 0 0 978.7 111.85" fill="#4f6a66"/><path d="M 978.7 111.85 A 27.96 27.96 0 0 1  1006.6600000000001 83.89 L 978.7 111.85 A 27.96 27.96 0 0 0 1006.6600000000001 83.89" fill="#2e3847"/><rect x="1118.5185185185185" y="55.925925925925924" width="55.925925925925924" height="55.925925925925924" fill="#f5f5dc"/><path d="M 1146.48 55.93 A 27.96 27.96 0 0 1  1174.44 83.89 L 1146.48 55.93 A 27.96 27.96 0 0 0 1174.44 83.89" fill="#dddfca"/><path d="M 1146.48 83.89 A 27.96 27.96 0 0 1  1174.44 111.85 L 1146.48 83.89 A 27.96 27.96 0 0 0 1174.44 111.85" fill="#ced4c0"/><rect x="1174.4444444444443" y="55.925925925925924" width="55.925925925925924" height="55.925925925925924" fill="#f5f5dc"/><path d="M 1342.22 111.86 A 55.93 55.93 0 0 1  1398.15 55.93 L 1342.22 111.86 A 55.93 55.93 0 0 0 1398.15 55.93" fill="#9a9f98"/><path d="M 1454.07 55.93 A 55.93 55.93 0 0 1  1510 111.86 L 1454.07 55.93 A 55.93 55.93 0 0 0 1510 111.86" fill="#cacab7"/><path d="M 167.78 111.85 A 55.93 55.93 0 0 1  223.71 167.78 L 167.78 111.85 A 55.93 55.93 0 0 0 223.71 167.78" fill="#e0e1cc"/><path d="M 279.63 111.85 A 55.93 55.93 0 0 1  335.56 167.78 L 279.63 111.85 A 55.93 55.93 0 0 0 335.56 167.78" fill="#6d837b"/><rect x="335.55555555555554" y="111.85185185185185" width="55.925925925925924" height="55.925925925925924" fill="#f5f5dc"/><path d="M 335.56 139.81 A 27.96 27.96 0 0 1  363.52 111.85 L 335.56 139.81 A 27.96 27.96 0 0 0 363.52 111.85" fill="#6d6d65"/><path d="M 363.52 139.81 A 27.96 27.96 0 0 1  391.47999999999996 167.77 L 363.52 139.81 A 27.96 27.96 0 0 0 391.47999999999996 167.77" fill="#7a7a71"/><path d="M 559.26 111.85 A 55.93 55.93 0 0 1  615.1899999999999 167.78 L 559.26 111.85 A 55.93 55.93 0 0 0 615.1899999999999 167.78" fill="#d8d9c6"/><rect x="615.1851851851852" y="111.85185185185185" width="55.925925925925924" height="55.925925925925924" fill="#f5f5dc"/><path d="M 615.19 111.85 A 27.96 27.96 0 0 1  643.1500000000001 139.81 L 615.19 111.85 A 27.96 27.96 0 0 0 643.1500000000001 139.81" fill="#f4f4db"/><path d="M 643.15 167.77 A 27.96 27.96 0 0 1  671.11 139.81 L 643.15 167.77 A 27.96 27.96 0 0 0 671.11 139.81" fill="#434341"/><rect x="727.037037037037" y="111.85185185185185" width="55.925925925925924" height="55.925925925925924" fill="#f5f5dc"/><path d="M 755 139.81 A 27.96 27.96 0 0 1  782.96 111.85 L 755 139.81 A 27.96 27.96 0 0 0 782.96 111.85" fill="#464f59"/><path d="M 838.89 111.85 A 55.93 55.93 0 0 1  894.8199999999999 167.78 L 838.89 111.85 A 55.93 55.93 0 0 0 894.8199999999999 167.78" fill="#bbbeb1"/><path d="M 1118.52 167.78 A 55.93 55.93 0 0 1  1174.45 111.85 L 1118.52 167.78 A 55.93 55.93 0 0 0 1174.45 111.85" fill="#819489"/><rect x="1230.3703703703704" y="111.85185185185185" width="55.925925925925924" height="55.925925925925924" fill="#f5f5dc"/><path d="M 1258.33 139.81 A 27.96 27.96 0 0 1  1286.29 167.77 L 1258.33 139.81 A 27.96 27.96 0 0 0 1286.29 167.77" fill="#a1a59d"/><path d="M 1286.3 111.85 A 55.93 55.93 0 0 1  1342.23 167.78 L 1286.3 111.85 A 55.93 55.93 0 0 0 1342.23 167.78" fill="#404954"/><rect x="1342.2222222222222" y="111.85185185185185" width="55.925925925925924" height="55.925925925925924" fill="#f5f5dc"/><path d="M 1454.07 111.85 A 55.93 55.93 0 0 1  1510 167.78 L 1454.07 111.85 A 55.93 55.93 0 0 0 1510 167.78" fill="#c2c4b6"/><rect x="55.925925925925924" y="167.77777777777777" width="55.925925925925924" height="55.925925925925924" fill="#f5f5dc"/><path d="M 55.93 195.74 A 27.96 27.96 0 0 1  83.89 167.78 L 55.93 195.74 A 27.96 27.96 0 0 0 83.89 167.78" fill="#b2bdac"/><path d="M 83.89 167.78 A 27.96 27.96 0 0 1  111.85 195.74 L 83.89 167.78 A 27.96 27.96 0 0 0 111.85 195.74" fill="#536d69"/><rect x="223.7037037037037" y="167.77777777777777" width="55.925925925925924" height="55.925925925925924" fill="#f5f5dc"/><path d="M 251.67 223.70000000000002 A 27.96 27.96 0 0 1  279.63 195.74 L 251.67 223.70000000000002 A 27.96 27.96 0 0 0 279.63 195.74" fill="#96a598"/><rect x="279.6296296296296" y="167.77777777777777" width="55.925925925925924" height="55.925925925925924" fill="#f5f5dc"/><path d="M 279.63 167.78 A 27.96 27.96 0 0 1  307.59 195.74 L 279.63 167.78 A 27.96 27.96 0 0 0 307.59 195.74" fill="#486461"/><path d="M 279.63 195.74 A 27.96 27.96 0 0 1  307.59 223.70000000000002 L 279.63 195.74 A 27.96 27.96 0 0 0 307.59 223.70000000000002" fill="#f0f1d8"/><path d="M 503.33 223.71 A 55.93 55.93 0 0 1  559.26 167.78 L 503.33 223.71 A 55.93 55.93 0 0 0 559.26 167.78" fill="#a3a394"/><rect x="615.1851851851852" y="167.77777777777777" width="55.925925925925924" height="55.925925925925924" fill="#f5f5dc"/><path d="M 615.19 167.78 A 27.96 27.96 0 0 1  643.1500000000001 195.74 L 615.19 167.78 A 27.96 27.96 0 0 0 643.1500000000001 195.74" fill="#5c756f"/><path d="M 643.15 195.74 A 27.96 27.96 0 0 1  671.11 167.78 L 643.15 195.74 A 27.96 27.96 0 0 0 671.11 167.78" fill="#464f59"/><path d="M 894.81 223.71 A 55.93 55.93 0 0 1  950.7399999999999 167.78 L 894.81 223.71 A 55.93 55.93 0 0 0 950.7399999999999 167.78" fill="#b3b3a3"/><rect x="1174.4444444444443" y="167.77777777777777" width="55.925925925925924" height="55.925925925925924" fill="#f5f5dc"/><path d="M 1174.44 167.78 A 27.96 27.96 0 0 1  1202.4 195.74 L 1174.44 167.78 A 27.96 27.96 0 0 0 1202.4 195.74" fill="#444442"/><rect x="1230.3703703703704" y="167.77777777777777" width="55.925925925925924" height="55.925925925925924" fill="#f5f5dc"/><path d="M 1258.33 167.78 A 27.96 27.96 0 0 1  1286.29 195.74 L 1258.33 167.78 A 27.96 27.96 0 0 0 1286.29 195.74" fill="#516b67"/><path d="M 1286.3 223.71 A 55.93 55.93 0 0 1  1342.23 167.78 L 1286.3 223.71 A 55.93 55.93 0 0 0 1342.23 167.78" fill="#263141"/><rect x="111.85185185185185" y="223.7037037037037" width="55.925925925925924" height="55.925925925925924" fill="#f5f5dc"/><path d="M 167.78 279.63 A 55.93 55.93 0 0 1  223.71 223.7 L 167.78 279.63 A 55.93 55.93 0 0 0 223.71 223.7" fill="#808076"/><path d="M 223.7 279.63 A 55.93 55.93 0 0 1  279.63 223.7 L 223.7 279.63 A 55.93 55.93 0 0 0 279.63 223.7" fill="#98a79a"/><rect x="391.48148148148147" y="223.7037037037037" width="55.925925925925924" height="55.925925925925924" fill="#f5f5dc"/><path d="M 391.48 251.67 A 27.96 27.96 0 0 1  419.44 279.63 L 391.48 251.67 A 27.96 27.96 0 0 0 419.44 279.63" fill="#c2c2b0"/><path d="M 419.44 251.67 A 27.96 27.96 0 0 1  447.4 279.63 L 419.44 251.67 A 27.96 27.96 0 0 0 447.4 279.63" fill="#50504c"/><rect x="615.1851851851852" y="223.7037037037037" width="55.925925925925924" height="55.925925925925924" fill="#f5f5dc"/><path d="M 782.96 279.63 A 55.93 55.93 0 0 1  838.89 223.7 L 782.96 279.63 A 55.93 55.93 0 0 0 838.89 223.7" fill="#6f7678"/><rect x="838.8888888888889" y="223.7037037037037" width="55.925925925925924" height="55.925925925925924" fill="#f5f5dc"/><path d="M 866.85 279.63 A 27.96 27.96 0 0 1  894.8100000000001 251.67 L 866.85 279.63 A 27.96 27.96 0 0 0 894.8100000000001 251.67" fill="#bdc6b4"/><path d="M 1118.52 279.63 A 55.93 55.93 0 0 1  1174.45 223.7 L 1118.52 279.63 A 55.93 55.93 0 0 0 1174.45 223.7" fill="#9fa49c"/><path d="M 1342.22 223.7 A 55.93 55.93 0 0 1  1398.15 279.63 L 1342.22 223.7 A 55.93 55.93 0 0 0 1398.15 279.63" fill="#c2c2b0"/><rect x="167.77777777777777" y="279.6296296296296" width="55.925925925925924" height="55.925925925925924" fill="#f5f5dc"/><path d="M 195.74 279.63 A 27.96 27.96 0 0 1  223.70000000000002 307.59 L 195.74 279.63 A 27.96 27.96 0 0 0 223.70000000000002 307.59" fill="#979c96"/><path d="M 167.78 335.54999999999995 A 27.96 27.96 0 0 1  195.74 307.59 L 167.78 335.54999999999995 A 27.96 27.96 0 0 0 195.74 307.59" fill="#525a62"/><path d="M 195.74 335.54999999999995 A 27.96 27.96 0 0 1  223.70000000000002 307.59 L 195.74 335.54999999999995 A 27.96 27.96 0 0 0 223.70000000000002 307.59" fill="#385756"/><path d="M 279.63 279.63 A 55.93 55.93 0 0 1  335.56 335.56 L 279.63 279.63 A 55.93 55.93 0 0 0 335.56 335.56" fill="#494946"/><rect x="447.4074074074074" y="279.6296296296296" width="55.925925925925924" height="55.925925925925924" fill="#f5f5dc"/><path d="M 475.37 307.59 A 27.96 27.96 0 0 1  503.33 279.63 L 475.37 307.59 A 27.96 27.96 0 0 0 503.33 279.63" fill="#434c57"/><path d="M 475.37 335.54999999999995 A 27.96 27.96 0 0 1  503.33 307.59 L 475.37 335.54999999999995 A 27.96 27.96 0 0 0 503.33 307.59" fill="#bfbfad"/><rect x="503.3333333333333" y="279.6296296296296" width="55.925925925925924" height="55.925925925925924" fill="#f5f5dc"/><path d="M 503.33 335.54999999999995 A 27.96 27.96 0 0 1  531.29 307.59 L 503.33 335.54999999999995 A 27.96 27.96 0 0 0 531.29 307.59" fill="#2e3847"/><path d="M 615.19 335.56 A 55.93 55.93 0 0 1  671.12 279.63 L 615.19 335.56 A 55.93 55.93 0 0 0 671.12 279.63" fill="#abb7a7"/><path d="M 727.04 335.56 A 55.93 55.93 0 0 1  782.9699999999999 279.63 L 727.04 335.56 A 55.93 55.93 0 0 0 782.9699999999999 279.63" fill="#818785"/><path d="M 894.81 335.56 A 55.93 55.93 0 0 1  950.7399999999999 279.63 L 894.81 335.56 A 55.93 55.93 0 0 0 950.7399999999999 279.63" fill="#315150"/><path d="M 950.74 335.56 A 55.93 55.93 0 0 1  1006.67 279.63 L 950.74 335.56 A 55.93 55.93 0 0 0 1006.67 279.63" fill="#e8e9d2"/><rect x="1286.2962962962963" y="279.6296296296296" width="55.925925925925924" height="55.925925925925924" fill="#f5f5dc"/><rect x="0" y="335.55555555555554" width="55.925925925925924" height="55.925925925925924" fill="#f5f5dc"/><path d="M 0 335.56 A 27.96 27.96 0 0 1  27.96 363.52 L 0 335.56 A 27.96 27.96 0 0 0 27.96 363.52" fill="#e4e6d0"/><path d="M 27.96 363.52 A 27.96 27.96 0 0 1  55.92 391.47999999999996 L 27.96 363.52 A 27.96 27.96 0 0 0 55.92 391.47999999999996" fill="#c3cbb8"/><path d="M 55.93 391.49 A 55.93 55.93 0 0 1  111.86 335.56 L 55.93 391.49 A 55.93 55.93 0 0 0 111.86 335.56" fill="#637a74"/><rect x="503.3333333333333" y="335.55555555555554" width="55.925925925925924" height="55.925925925925924" fill="#f5f5dc"/><path d="M 503.33 363.52 A 27.96 27.96 0 0 1  531.29 335.56 L 503.33 363.52 A 27.96 27.96 0 0 0 531.29 335.56" fill="#f4f4db"/><path d="M 1006.67 391.49 A 55.93 55.93 0 0 1  1062.6 335.56 L 1006.67 391.49 A 55.93 55.93 0 0 0 1062.6 335.56" fill="#242f3f"/><rect x="1118.5185185185185" y="335.55555555555554" width="55.925925925925924" height="55.925925925925924" fill="#f5f5dc"/><path d="M 1146.48 363.52 A 27.96 27.96 0 0 1  1174.44 335.56 L 1146.48 363.52 A 27.96 27.96 0 0 0 1174.44 335.56" fill="#bbc5b3"/><path d="M 1118.52 391.47999999999996 A 27.96 27.96 0 0 1  1146.48 363.52 L 1118.52 391.47999999999996 A 27.96 27.96 0 0 0 1146.48 363.52" fill="#474745"/><path d="M 1146.48 391.47999999999996 A 27.96 27.96 0 0 1  1174.44 363.52 L 1146.48 391.47999999999996 A 27.96 27.96 0 0 0 1174.44 363.52" fill="#a1a69d"/><path d="M 1342.22 391.49 A 55.93 55.93 0 0 1  1398.15 335.56 L 1342.22 391.49 A 55.93 55.93 0 0 0 1398.15 335.56" fill="#abb7a7"/><rect x="223.7037037037037" y="391.48148148148147" width="55.925925925925924" height="55.925925925925924" fill="#f5f5dc"/><path d="M 251.67 419.44 A 27.96 27.96 0 0 1  279.63 391.48 L 251.67 419.44 A 27.96 27.96 0 0 0 279.63 391.48" fill="#556f6a"/><path d="M 251.67 419.44 A 27.96 27.96 0 0 1  279.63 447.4 L 251.67 419.44 A 27.96 27.96 0 0 0 279.63 447.4" fill="#72726a"/><path d="M 335.56 391.48 A 55.93 55.93 0 0 1  391.49 447.41 L 335.56 391.48 A 55.93 55.93 0 0 0 391.49 447.41" fill="#a9a999"/><path d="M 447.41 447.41 A 55.93 55.93 0 0 1  503.34000000000003 391.48 L 447.41 447.41 A 55.93 55.93 0 0 0 503.34000000000003 391.48" fill="#797f7f"/><rect x="671.1111111111111" y="391.48148148148147" width="55.925925925925924" height="55.925925925925924" fill="#f5f5dc"/><path d="M 699.07 419.44 A 27.96 27.96 0 0 1  727.0300000000001 447.4 L 699.07 419.44 A 27.96 27.96 0 0 0 727.0300000000001 447.4" fill="#e5e5ce"/><path d="M 1062.59 391.48 A 55.93 55.93 0 0 1  1118.52 447.41 L 1062.59 391.48 A 55.93 55.93 0 0 0 1118.52 447.41" fill="#a4b1a2"/><path d="M 1230.37 447.41 A 55.93 55.93 0 0 1  1286.3 391.48 L 1230.37 447.41 A 55.93 55.93 0 0 0 1286.3 391.48" fill="#515a61"/><rect x="1286.2962962962963" y="391.48148148148147" width="55.925925925925924" height="55.925925925925924" fill="#f5f5dc"/><path d="M 1314.26 419.44 A 27.96 27.96 0 0 1  1342.22 391.48 L 1314.26 419.44 A 27.96 27.96 0 0 0 1342.22 391.48" fill="#efefd6"/><path d="M 1342.22 391.48 A 55.93 55.93 0 0 1  1398.15 447.41 L 1342.22 391.48 A 55.93 55.93 0 0 0 1398.15 447.41" fill="#474744"/><rect x="1454.074074074074" y="391.48148148148147" width="55.925925925925924" height="55.925925925925924" fill="#f5f5dc"/><path d="M 1454.07 419.44 A 27.96 27.96 0 0 1  1482.03 391.48 L 1454.07 419.44 A 27.96 27.96 0 0 0 1482.03 391.48" fill="#dfe0cb"/><rect x="167.77777777777777" y="447.4074074074074" width="55.925925925925924" height="55.925925925925924" fill="#f5f5dc"/><path d="M 167.78 447.41 A 27.96 27.96 0 0 1  195.74 475.37 L 167.78 447.41 A 27.96 27.96 0 0 0 195.74 475.37" fill="#474745"/><path d="M 195.74 503.33 A 27.96 27.96 0 0 1  223.70000000000002 475.37 L 195.74 503.33 A 27.96 27.96 0 0 0 223.70000000000002 475.37" fill="#eff0d7"/><path d="M 223.7 447.41 A 55.93 55.93 0 0 1  279.63 503.34000000000003 L 223.7 447.41 A 55.93 55.93 0 0 0 279.63 503.34000000000003" fill="#97978a"/><rect x="447.4074074074074" y="447.4074074074074" width="55.925925925925924" height="55.925925925925924" fill="#f5f5dc"/><path d="M 447.41 475.37 A 27.96 27.96 0 0 1  475.37 447.41 L 447.41 475.37 A 27.96 27.96 0 0 0 475.37 447.41" fill="#5f666b"/><rect x="615.1851851851852" y="447.4074074074074" width="55.925925925925924" height="55.925925925925924" fill="#f5f5dc"/><path d="M 643.15 447.41 A 27.96 27.96 0 0 1  671.11 475.37 L 643.15 447.41 A 27.96 27.96 0 0 0 671.11 475.37" fill="#3b3b3a"/><path d="M 615.19 475.37 A 27.96 27.96 0 0 1  643.1500000000001 503.33 L 615.19 475.37 A 27.96 27.96 0 0 0 643.1500000000001 503.33" fill="#edeed6"/><path d="M 643.15 503.33 A 27.96 27.96 0 0 1  671.11 475.37 L 643.15 503.33 A 27.96 27.96 0 0 0 671.11 475.37" fill="#a6a697"/><rect x="782.9629629629629" y="447.4074074074074" width="55.925925925925924" height="55.925925925925924" fill="#f5f5dc"/><path d="M 782.96 475.37 A 27.96 27.96 0 0 1  810.9200000000001 447.41 L 782.96 475.37 A 27.96 27.96 0 0 0 810.9200000000001 447.41" fill="#56706b"/><path d="M 810.93 475.37 A 27.96 27.96 0 0 1  838.89 447.41 L 810.93 475.37 A 27.96 27.96 0 0 0 838.89 447.41" fill="#ced4c0"/><path d="M 810.93 475.37 A 27.96 27.96 0 0 1  838.89 503.33 L 810.93 475.37 A 27.96 27.96 0 0 0 838.89 503.33" fill="#d8d8c3"/><path d="M 950.74 503.34000000000003 A 55.93 55.93 0 0 1  1006.67 447.41 L 950.74 503.34000000000003 A 55.93 55.93 0 0 0 1006.67 447.41" fill="#627a74"/><rect x="1062.5925925925926" y="447.4074074074074" width="55.925925925925924" height="55.925925925925924" fill="#f5f5dc"/><path d="M 1286.3 503.34000000000003 A 55.93 55.93 0 0 1  1342.23 447.41 L 1286.3 503.34000000000003 A 55.93 55.93 0 0 0 1342.23 447.41" fill="#c0c2b4"/><path d="M 1454.07 447.41 A 55.93 55.93 0 0 1  1510 503.34000000000003 L 1454.07 447.41 A 55.93 55.93 0 0 0 1510 503.34000000000003" fill="#788c83"/></g></svg>