<?xml version="1.0" standalone="no"?><svg xmlns:xlink="http://www.w3.org/1999/xlink" xmlns="http://www.w3.org/2000/svg" viewBox="0 0 1000 1250.0073128352935" preserveAspectRatio="xMaxYMax slice"><g transform="scale(1.9500894115995218)"><rect x="0" y="0" width="512.8" height="641" fill="#f5f5dc"/><path d="M 0 25.64 A 25.64 25.64 0 0 1  25.64 0 L 0 25.64 A 25.64 25.64 0 0 0 25.64 0" fill="#f5f5dc"/><path d="M 25.64 25.64 A 25.64 25.64 0 0 1  51.28 0 L 25.64 25.64 A 25.64 25.64 0 0 0 51.28 0" fill="#f5f5dc"/><path d="M 51.28 25.64 A 25.64 25.64 0 0 1  76.92 0 L 51.28 25.64 A 25.64 25.64 0 0 0 76.92 0" fill="#8f8f83"/><path d="M 76.92 25.64 A 25.64 25.64 0 0 1  102.56 0 L 76.92 25.64 A 25.64 25.64 0 0 0 102.56 0" fill="#f5f5dc"/><path d="M 102.56 0 A 25.64 25.64 0 0 1  128.2 25.64 L 102.56 0 A 25.64 25.64 0 0 0 128.2 25.64" fill="#afaf9f"/><path d="M 128.2 0 A 25.64 25.64 0 0 1  153.83999999999997 25.64 L 128.2 0 A 25.64 25.64 0 0 0 153.83999999999997 25.64" fill="#98988b"/><path d="M 153.84 0 A 25.64 25.64 0 0 1  179.48000000000002 25.64 L 153.84 0 A 25.64 25.64 0 0 0 179.48000000000002 25.64" fill="#f5f5dc"/><path d="M 179.48 25.64 A 25.64 25.64 0 0 1  205.12 0 L 179.48 25.64 A 25.64 25.64 0 0 0 205.12 0" fill="#6f6f67"/><path d="M 205.12 0 A 25.64 25.64 0 0 1  230.76 25.64 L 205.12 0 A 25.64 25.64 0 0 0 230.76 25.64" fill="#f5f5dc"/><path d="M 230.76 25.64 A 25.64 25.64 0 0 1  256.4 0 L 230.76 25.64 A 25.64 25.64 0 0 0 256.4 0" fill="#4a4a47"/><path d="M 256.4 0 A 25.64 25.64 0 0 1  282.03999999999996 25.64 L 256.4 0 A 25.64 25.64 0 0 0 282.03999999999996 25.64" fill="#f5f5dc"/><path d="M 282.04 25.64 A 25.64 25.64 0 0 1  307.68 0 L 282.04 25.64 A 25.64 25.64 0 0 0 307.68 0" fill="#a8aca2"/><path d="M 307.68 0 A 25.64 25.64 0 0 1  333.32 25.64 L 307.68 0 A 25.64 25.64 0 0 0 333.32 25.64" fill="#f5f5dc"/><path d="M 333.32 0 A 25.64 25.64 0 0 1  358.96 25.64 L 333.32 0 A 25.64 25.64 0 0 0 358.96 25.64" fill="#8b8b80"/><path d="M 358.96 25.64 A 25.64 25.64 0 0 1  384.59999999999997 0 L 358.96 25.64 A 25.64 25.64 0 0 0 384.59999999999997 0" fill="#f5f5dc"/><path d="M 384.6 25.64 A 25.64 25.64 0 0 1  410.24 0 L 384.6 25.64 A 25.64 25.64 0 0 0 410.24 0" fill="#f5f5dc"/><path d="M 410.24 0 A 25.64 25.64 0 0 1  435.88 25.64 L 410.24 0 A 25.64 25.64 0 0 0 435.88 25.64" fill="#dcddc9"/><path d="M 435.88 0 A 25.64 25.64 0 0 1  461.52 25.64 L 435.88 0 A 25.64 25.64 0 0 0 461.52 25.64" fill="#f5f5dc"/><path d="M 461.52 0 A 25.64 25.64 0 0 1  487.15999999999997 25.64 L 461.52 0 A 25.64 25.64 0 0 0 487.15999999999997 25.64" fill="#8d8d82"/><path d="M 487.16 25.64 A 25.64 25.64 0 0 1  512.8000000000001 0 L 487.16 25.64 A 25.64 25.64 0 0 0 512.8000000000001 0" fill="#89897e"/><path d="M 0 51.28 A 25.64 25.64 0 0 1  25.64 25.64 L 0 51.28 A 25.64 25.64 0 0 0 25.64 25.64" fill="#f5f5dc"/><path d="M 25.64 51.28 A 25.64 25.64 0 0 1  51.28 25.64 L 25.64 51.28 A 25.64 25.64 0 0 0 51.28 25.64" fill="#d2d2be"/><path d="M 51.28 25.64 A 25.64 25.64 0 0 1  76.92 51.28 L 51.28 25.64 A 25.64 25.64 0 0 0 76.92 51.28" fill="#f5f5dc"/><path d="M 76.92 25.64 A 25.64 25.64 0 0 1  102.56 51.28 L 76.92 25.64 A 25.64 25.64 0 0 0 102.56 51.28" fill="#bec1b3"/><path d="M 102.56 51.28 A 25.64 25.64 0 0 1  128.2 25.64 L 102.56 51.28 A 25.64 25.64 0 0 0 128.2 25.64" fill="#75756c"/><path d="M 128.2 51.28 A 25.64 25.64 0 0 1  153.83999999999997 25.64 L 128.2 51.28 A 25.64 25.64 0 0 0 153.83999999999997 25.64" fill="#e1e1cb"/><path d="M 153.84 25.64 A 25.64 25.64 0 0 1  179.48000000000002 51.28 L 153.84 25.64 A 25.64 25.64 0 0 0 179.48000000000002 51.28" fill="#63635c"/><path d="M 179.48 51.28 A 25.64 25.64 0 0 1  205.12 25.64 L 179.48 51.28 A 25.64 25.64 0 0 0 205.12 25.64" fill="#d2d4c2"/><path d="M 205.12 25.64 A 25.64 25.64 0 0 1  230.76 51.28 L 205.12 25.64 A 25.64 25.64 0 0 0 230.76 51.28" fill="#f5f5dc"/><path d="M 230.76 25.64 A 25.64 25.64 0 0 1  256.4 51.28 L 230.76 25.64 A 25.64 25.64 0 0 0 256.4 51.28" fill="#60605a"/><path d="M 256.4 51.28 A 25.64 25.64 0 0 1  282.03999999999996 25.64 L 256.4 51.28 A 25.64 25.64 0 0 0 282.03999999999996 25.64" fill="#f5f5dc"/><path d="M 282.04 25.64 A 25.64 25.64 0 0 1  307.68 51.28 L 282.04 25.64 A 25.64 25.64 0 0 0 307.68 51.28" fill="#7f7f75"/><path d="M 307.68 51.28 A 25.64 25.64 0 0 1  333.32 25.64 L 307.68 51.28 A 25.64 25.64 0 0 0 333.32 25.64" fill="#6d7476"/><path d="M 333.32 25.64 A 25.64 25.64 0 0 1  358.96 51.28 L 333.32 25.64 A 25.64 25.64 0 0 0 358.96 51.28" fill="#f5f5dc"/><path d="M 358.96 25.64 A 25.64 25.64 0 0 1  384.59999999999997 51.28 L 358.96 25.64 A 25.64 25.64 0 0 0 384.59999999999997 51.28" fill="#aaaa9b"/><path d="M 384.6 25.64 A 25.64 25.64 0 0 1  410.24 51.28 L 384.6 25.64 A 25.64 25.64 0 0 0 410.24 51.28" fill="#545d64"/><path d="M 410.24 25.64 A 25.64 25.64 0 0 1  435.88 51.28 L 410.24 25.64 A 25.64 25.64 0 0 0 435.88 51.28" fill="#f5f5dc"/><path d="M 435.88 51.28 A 25.64 25.64 0 0 1  461.52 25.64 L 435.88 51.28 A 25.64 25.64 0 0 0 461.52 25.64" fill="#8b918c"/><path d="M 461.52 51.28 A 25.64 25.64 0 0 1  487.15999999999997 25.64 L 461.52 51.28 A 25.64 25.64 0 0 0 487.15999999999997 25.64" fill="#aaaea3"/><path d="M 487.16 51.28 A 25.64 25.64 0 0 1  512.8000000000001 25.64 L 487.16 51.28 A 25.64 25.64 0 0 0 512.8000000000001 25.64" fill="#f5f5dc"/><path d="M 0 51.28 A 25.64 25.64 0 0 1  25.64 76.92 L 0 51.28 A 25.64 25.64 0 0 0 25.64 76.92" fill="#f5f5dc"/><path d="M 25.64 76.92 A 25.64 25.64 0 0 1  51.28 51.28 L 25.64 76.92 A 25.64 25.64 0 0 0 51.28 51.28" fill="#545d64"/><path d="M 51.28 51.28 A 25.64 25.64 0 0 1  76.92 76.92 L 51.28 51.28 A 25.64 25.64 0 0 0 76.92 76.92" fill="#f5f5dc"/><path d="M 76.92 51.28 A 25.64 25.64 0 0 1  102.56 76.92 L 76.92 51.28 A 25.64 25.64 0 0 0 102.56 76.92" fill="#f5f5dc"/><path d="M 102.56 76.92 A 25.64 25.64 0 0 1  128.2 51.28 L 102.56 76.92 A 25.64 25.64 0 0 0 128.2 51.28" fill="#f5f5dc"/><path d="M 128.2 76.92 A 25.64 25.64 0 0 1  153.83999999999997 51.28 L 128.2 76.92 A 25.64 25.64 0 0 0 153.83999999999997 51.28" fill="#f5f5dc"/><path d="M 153.84 51.28 A 25.64 25.64 0 0 1  179.48000000000002 76.92 L 153.84 51.28 A 25.64 25.64 0 0 0 179.48000000000002 76.92" fill="#f5f5dc"/><path d="M 179.48 76.92 A 25.64 25.64 0 0 1  205.12 51.28 L 179.48 76.92 A 25.64 25.64 0 0 0 205.12 51.28" fill="#d3d3be"/><path d="M 205.12 76.92 A 25.64 25.64 0 0 1  230.76 51.28 L 205.12 76.92 A 25.64 25.64 0 0 0 230.76 51.28" fill="#f5f5dc"/><path d="M 230.76 51.28 A 25.64 25.64 0 0 1  256.4 76.92 L 230.76 51.28 A 25.64 25.64 0 0 0 256.4 76.92" fill="#5e5e58"/><path d="M 256.4 51.28 A 25.64 25.64 0 0 1  282.03999999999996 76.92 L 256.4 51.28 A 25.64 25.64 0 0 0 282.03999999999996 76.92" fill="#f5f5dc"/><path d="M 282.04 76.92 A 25.64 25.64 0 0 1  307.68 51.28 L 282.04 76.92 A 25.64 25.64 0 0 0 307.68 51.28" fill="#687072"/><path d="M 307.68 51.28 A 25.64 25.64 0 0 1  333.32 76.92 L 307.68 51.28 A 25.64 25.64 0 0 0 333.32 76.92" fill="#aaafa4"/><path d="M 333.32 76.92 A 25.64 25.64 0 0 1  358.96 51.28 L 333.32 76.92 A 25.64 25.64 0 0 0 358.96 51.28" fill="#e2e2cc"/><path d="M 358.96 76.92 A 25.64 25.64 0 0 1  384.59999999999997 51.28 L 358.96 76.92 A 25.64 25.64 0 0 0 384.59999999999997 51.28" fill="#f5f5dc"/><path d="M 384.6 51.28 A 25.64 25.64 0 0 1  410.24 76.92 L 384.6 51.28 A 25.64 25.64 0 0 0 410.24 76.92" fill="#f5f5dc"/><path d="M 410.24 76.92 A 25.64 25.64 0 0 1  435.88 51.28 L 410.24 76.92 A 25.64 25.64 0 0 0 435.88 51.28" fill="#838378"/><path d="M 435.88 51.28 A 25.64 25.64 0 0 1  461.52 76.92 L 435.88 51.28 A 25.64 25.64 0 0 0 461.52 76.92" fill="#62625b"/><path d="M 461.52 76.92 A 25.64 25.64 0 0 1  487.15999999999997 51.28 L 461.52 76.92 A 25.64 25.64 0 0 0 487.15999999999997 51.28" fill="#7f8583"/><path d="M 487.16 76.92 A 25.64 25.64 0 0 1  512.8000000000001 51.28 L 487.16 76.92 A 25.64 25.64 0 0 0 512.8000000000001 51.28" fill="#898f8b"/><path d="M 0 76.92 A 25.64 25.64 0 0 1  25.64 102.56 L 0 76.92 A 25.64 25.64 0 0 0 25.64 102.56" fill="#a1a192"/><path d="M 25.64 76.92 A 25.64 25.64 0 0 1  51.28 102.56 L 25.64 76.92 A 25.64 25.64 0 0 0 51.28 102.56" fill="#494945"/><path d="M 51.28 76.92 A 25.64 25.64 0 0 1  76.92 102.56 L 51.28 76.92 A 25.64 25.64 0 0 0 76.92 102.56" fill="#f5f5dc"/><path d="M 76.92 102.56 A 25.64 25.64 0 0 1  102.56 76.92 L 76.92 102.56 A 25.64 25.64 0 0 0 102.56 76.92" fill="#b5b9ac"/><path d="M 102.56 102.56 A 25.64 25.64 0 0 1  128.2 76.92 L 102.56 102.56 A 25.64 25.64 0 0 0 128.2 76.92" fill="#f5f5dc"/><path d="M 128.2 102.56 A 25.64 25.64 0 0 1  153.83999999999997 76.92 L 128.2 102.56 A 25.64 25.64 0 0 0 153.83999999999997 76.92" fill="#f5f5dc"/><path d="M 153.84 76.92 A 25.64 25.64 0 0 1  179.48000000000002 102.56 L 153.84 76.92 A 25.64 25.64 0 0 0 179.48000000000002 102.56" fill="#5a5a55"/><path d="M 179.48 102.56 A 25.64 25.64 0 0 1  205.12 76.92 L 179.48 102.56 A 25.64 25.64 0 0 0 205.12 76.92" fill="#d0d2c0"/><path d="M 205.12 76.92 A 25.64 25.64 0 0 1  230.76 102.56 L 205.12 76.92 A 25.64 25.64 0 0 0 230.76 102.56" fill="#8f8f83"/><path d="M 230.76 102.56 A 25.64 25.64 0 0 1  256.4 76.92 L 230.76 102.56 A 25.64 25.64 0 0 0 256.4 76.92" fill="#f5f5dc"/><path d="M 256.4 102.56 A 25.64 25.64 0 0 1  282.03999999999996 76.92 L 256.4 102.56 A 25.64 25.64 0 0 0 282.03999999999996 76.92" fill="#f4f4db"/><path d="M 282.04 76.92 A 25.64 25.64 0 0 1  307.68 102.56 L 282.04 76.92 A 25.64 25.64 0 0 0 307.68 102.56" fill="#e0e2cd"/><path d="M 307.68 102.56 A 25.64 25.64 0 0 1  333.32 76.92 L 307.68 102.56 A 25.64 25.64 0 0 0 333.32 76.92" fill="#f5f5dc"/><path d="M 333.32 102.56 A 25.64 25.64 0 0 1  358.96 76.92 L 333.32 102.56 A 25.64 25.64 0 0 0 358.96 76.92" fill="#f1f1d9"/><path d="M 358.96 76.92 A 25.64 25.64 0 0 1  384.59999999999997 102.56 L 358.96 76.92 A 25.64 25.64 0 0 0 384.59999999999997 102.56" fill="#f5f5dc"/><path d="M 384.6 102.56 A 25.64 25.64 0 0 1  410.24 76.92 L 384.6 102.56 A 25.64 25.64 0 0 0 410.24 76.92" fill="#838378"/><path d="M 410.24 102.56 A 25.64 25.64 0 0 1  435.88 76.92 L 410.24 102.56 A 25.64 25.64 0 0 0 435.88 76.92" fill="#f5f5dc"/><path d="M 435.88 76.92 A 25.64 25.64 0 0 1  461.52 102.56 L 435.88 76.92 A 25.64 25.64 0 0 0 461.52 102.56" fill="#a3a79e"/><path d="M 461.52 76.92 A 25.64 25.64 0 0 1  487.15999999999997 102.56 L 461.52 76.92 A 25.64 25.64 0 0 0 487.15999999999997 102.56" fill="#a8aca2"/><path d="M 487.16 102.56 A 25.64 25.64 0 0 1  512.8000000000001 76.92 L 487.16 102.56 A 25.64 25.64 0 0 0 512.8000000000001 76.92" fill="#5a5a55"/><path d="M 0 102.56 A 25.64 25.64 0 0 1  25.64 128.2 L 0 102.56 A 25.64 25.64 0 0 0 25.64 128.2" fill="#6f7778"/><path d="M 25.64 102.56 A 25.64 25.64 0 0 1  51.28 128.2 L 25.64 102.56 A 25.64 25.64 0 0 0 51.28 128.2" fill="#c8c8b5"/><path d="M 51.28 102.56 A 25.64 25.64 0 0 1  76.92 128.2 L 51.28 102.56 A 25.64 25.64 0 0 0 76.92 128.2" fill="#a7a798"/><path d="M 76.92 128.2 A 25.64 25.64 0 0 1  102.56 102.56 L 76.92 128.2 A 25.64 25.64 0 0 0 102.56 102.56" fill="#a8a899"/><path d="M 102.56 102.56 A 25.64 25.64 0 0 1  128.2 128.2 L 102.56 102.56 A 25.64 25.64 0 0 0 128.2 128.2" fill="#7d7d73"/><path d="M 128.2 128.2 A 25.64 25.64 0 0 1  153.83999999999997 102.56 L 128.2 128.2 A 25.64 25.64 0 0 0 153.83999999999997 102.56" fill="#f5f5dc"/><path d="M 153.84 102.56 A 25.64 25.64 0 0 1  179.48000000000002 128.2 L 153.84 102.56 A 25.64 25.64 0 0 0 179.48000000000002 128.2" fill="#f5f5dc"/><path d="M 179.48 102.56 A 25.64 25.64 0 0 1  205.12 128.2 L 179.48 102.56 A 25.64 25.64 0 0 0 205.12 128.2" fill="#b1b5a9"/><path d="M 205.12 102.56 A 25.64 25.64 0 0 1  230.76 128.2 L 205.12 102.56 A 25.64 25.64 0 0 0 230.76 128.2" fill="#a6aaa1"/><path d="M 230.76 102.56 A 25.64 25.64 0 0 1  256.4 128.2 L 230.76 102.56 A 25.64 25.64 0 0 0 256.4 128.2" fill="#66665f"/><path d="M 256.4 102.56 A 25.64 25.64 0 0 1  282.03999999999996 128.2 L 256.4 102.56 A 25.64 25.64 0 0 0 282.03999999999996 128.2" fill="#f5f5dc"/><path d="M 282.04 128.2 A 25.64 25.64 0 0 1  307.68 102.56 L 282.04 128.2 A 25.64 25.64 0 0 0 307.68 102.56" fill="#ced0be"/><path d="M 307.68 128.2 A 25.64 25.64 0 0 1  333.32 102.56 L 307.68 128.2 A 25.64 25.64 0 0 0 333.32 102.56" fill="#f5f5dc"/><path d="M 333.32 128.2 A 25.64 25.64 0 0 1  358.96 102.56 L 333.32 128.2 A 25.64 25.64 0 0 0 358.96 102.56" fill="#f5f5dc"/><path d="M 358.96 128.2 A 25.64 25.64 0 0 1  384.59999999999997 102.56 L 358.96 128.2 A 25.64 25.64 0 0 0 384.59999999999997 102.56" fill="#949993"/><path d="M 384.6 102.56 A 25.64 25.64 0 0 1  410.24 128.2 L 384.6 102.56 A 25.64 25.64 0 0 0 410.24 128.2" fill="#f5f5dc"/><path d="M 410.24 128.2 A 25.64 25.64 0 0 1  435.88 102.56 L 410.24 128.2 A 25.64 25.64 0 0 0 435.88 102.56" fill="#7a8180"/><path d="M 435.88 102.56 A 25.64 25.64 0 0 1  461.52 128.2 L 435.88 102.56 A 25.64 25.64 0 0 0 461.52 128.2" fill="#f5f5dc"/><path d="M 461.52 128.2 A 25.64 25.64 0 0 1  487.15999999999997 102.56 L 461.52 128.2 A 25.64 25.64 0 0 0 487.15999999999997 102.56" fill="#f5f5dc"/><path d="M 487.16 128.2 A 25.64 25.64 0 0 1  512.8000000000001 102.56 L 487.16 128.2 A 25.64 25.64 0 0 0 512.8000000000001 102.56" fill="#8f8f83"/><path d="M 0 153.83999999999997 A 25.64 25.64 0 0 1  25.64 128.2 L 0 153.83999999999997 A 25.64 25.64 0 0 0 25.64 128.2" fill="#9b9b8d"/><path d="M 25.64 128.2 A 25.64 25.64 0 0 1  51.28 153.83999999999997 L 25.64 128.2 A 25.64 25.64 0 0 0 51.28 153.83999999999997" fill="#dadac4"/><path d="M 51.28 153.83999999999997 A 25.64 25.64 0 0 1  76.92 128.2 L 51.28 153.83999999999997 A 25.64 25.64 0 0 0 76.92 128.2" fill="#f5f5dc"/><path d="M 76.92 153.83999999999997 A 25.64 25.64 0 0 1  102.56 128.2 L 76.92 153.83999999999997 A 25.64 25.64 0 0 0 102.56 128.2" fill="#747b7b"/><path d="M 102.56 128.2 A 25.64 25.64 0 0 1  128.2 153.83999999999997 L 102.56 128.2 A 25.64 25.64 0 0 0 128.2 153.83999999999997" fill="#b8b8a7"/><path d="M 128.2 153.83999999999997 A 25.64 25.64 0 0 1  153.83999999999997 128.2 L 128.2 153.83999999999997 A 25.64 25.64 0 0 0 153.83999999999997 128.2" fill="#acac9c"/><path d="M 153.84 153.83999999999997 A 25.64 25.64 0 0 1  179.48000000000002 128.2 L 153.84 153.83999999999997 A 25.64 25.64 0 0 0 179.48000000000002 128.2" fill="#a5a596"/><path d="M 179.48 153.83999999999997 A 25.64 25.64 0 0 1  205.12 128.2 L 179.48 153.83999999999997 A 25.64 25.64 0 0 0 205.12 128.2" fill="#858b88"/><path d="M 205.12 128.2 A 25.64 25.64 0 0 1  230.76 153.83999999999997 L 205.12 128.2 A 25.64 25.64 0 0 0 230.76 153.83999999999997" fill="#8a8a7e"/><path d="M 230.76 153.83999999999997 A 25.64 25.64 0 0 1  256.4 128.2 L 230.76 153.83999999999997 A 25.64 25.64 0 0 0 256.4 128.2" fill="#5e5e59"/><path d="M 256.4 153.83999999999997 A 25.64 25.64 0 0 1  282.03999999999996 128.2 L 256.4 153.83999999999997 A 25.64 25.64 0 0 0 282.03999999999996 128.2" fill="#dadcc8"/><path d="M 282.04 128.2 A 25.64 25.64 0 0 1  307.68 153.83999999999997 L 282.04 128.2 A 25.64 25.64 0 0 0 307.68 153.83999999999997" fill="#ceceba"/><path d="M 307.68 153.83999999999997 A 25.64 25.64 0 0 1  333.32 128.2 L 307.68 153.83999999999997 A 25.64 25.64 0 0 0 333.32 128.2" fill="#73736a"/><path d="M 333.32 128.2 A 25.64 25.64 0 0 1  358.96 153.83999999999997 L 333.32 128.2 A 25.64 25.64 0 0 0 358.96 153.83999999999997" fill="#f4f4db"/><path d="M 358.96 128.2 A 25.64 25.64 0 0 1  384.59999999999997 153.83999999999997 L 358.96 128.2 A 25.64 25.64 0 0 0 384.59999999999997 153.83999999999997" fill="#555d64"/><path d="M 384.6 128.2 A 25.64 25.64 0 0 1  410.24 153.83999999999997 L 384.6 128.2 A 25.64 25.64 0 0 0 410.24 153.83999999999997" fill="#9fa39b"/><path d="M 410.24 153.83999999999997 A 25.64 25.64 0 0 1  435.88 128.2 L 410.24 153.83999999999997 A 25.64 25.64 0 0 0 435.88 128.2" fill="#f5f5dc"/><path d="M 435.88 128.2 A 25.64 25.64 0 0 1  461.52 153.83999999999997 L 435.88 128.2 A 25.64 25.64 0 0 0 461.52 153.83999999999997" fill="#e7e7d0"/><path d="M 461.52 153.83999999999997 A 25.64 25.64 0 0 1  487.15999999999997 128.2 L 461.52 153.83999999999997 A 25.64 25.64 0 0 0 487.15999999999997 128.2" fill="#f5f5dc"/><path d="M 487.16 128.2 A 25.64 25.64 0 0 1  512.8000000000001 153.83999999999997 L 487.16 128.2 A 25.64 25.64 0 0 0 512.8000000000001 153.83999999999997" fill="#78786f"/><path d="M 0 179.48000000000002 A 25.64 25.64 0 0 1  25.64 153.84 L 0 179.48000000000002 A 25.64 25.64 0 0 0 25.64 153.84" fill="#a3a79e"/><path d="M 25.64 153.84 A 25.64 25.64 0 0 1  51.28 179.48000000000002 L 25.64 153.84 A 25.64 25.64 0 0 0 51.28 179.48000000000002" fill="#d1d1bd"/><path d="M 51.28 179.48000000000002 A 25.64 25.64 0 0 1  76.92 153.84 L 51.28 179.48000000000002 A 25.64 25.64 0 0 0 76.92 153.84" fill="#d7d9c6"/><path d="M 76.92 179.48000000000002 A 25.64 25.64 0 0 1  102.56 153.84 L 76.92 179.48000000000002 A 25.64 25.64 0 0 0 102.56 153.84" fill="#919691"/><path d="M 102.56 179.48000000000002 A 25.64 25.64 0 0 1  128.2 153.84 L 102.56 179.48000000000002 A 25.64 25.64 0 0 0 128.2 153.84" fill="#f5f5dc"/><path d="M 128.2 179.48000000000002 A 25.64 25.64 0 0 1  153.83999999999997 153.84 L 128.2 179.48000000000002 A 25.64 25.64 0 0 0 153.83999999999997 153.84" fill="#52524e"/><path d="M 153.84 153.84 A 25.64 25.64 0 0 1  179.48000000000002 179.48000000000002 L 153.84 153.84 A 25.64 25.64 0 0 0 179.48000000000002 179.48000000000002" fill="#848479"/><path d="M 179.48 153.84 A 25.64 25.64 0 0 1  205.12 179.48000000000002 L 179.48 153.84 A 25.64 25.64 0 0 0 205.12 179.48000000000002" fill="#697173"/><path d="M 205.12 153.84 A 25.64 25.64 0 0 1  230.76 179.48000000000002 L 205.12 153.84 A 25.64 25.64 0 0 0 230.76 179.48000000000002" fill="#bdbdab"/><path d="M 230.76 179.48000000000002 A 25.64 25.64 0 0 1  256.4 153.84 L 230.76 179.48000000000002 A 25.64 25.64 0 0 0 256.4 153.84" fill="#f5f5dc"/><path d="M 256.4 179.48000000000002 A 25.64 25.64 0 0 1  282.03999999999996 153.84 L 256.4 179.48000000000002 A 25.64 25.64 0 0 0 282.03999999999996 153.84" fill="#f5f5dc"/><path d="M 282.04 179.48000000000002 A 25.64 25.64 0 0 1  307.68 153.84 L 282.04 179.48000000000002 A 25.64 25.64 0 0 0 307.68 153.84" fill="#eaead2"/><path d="M 307.68 179.48000000000002 A 25.64 25.64 0 0 1  333.32 153.84 L 307.68 179.48000000000002 A 25.64 25.64 0 0 0 333.32 153.84" fill="#818885"/><path d="M 333.32 179.48000000000002 A 25.64 25.64 0 0 1  358.96 153.84 L 333.32 179.48000000000002 A 25.64 25.64 0 0 0 358.96 153.84" fill="#4d4d49"/><path d="M 358.96 153.84 A 25.64 25.64 0 0 1  384.59999999999997 179.48000000000002 L 358.96 153.84 A 25.64 25.64 0 0 0 384.59999999999997 179.48000000000002" fill="#797f7f"/><path d="M 384.6 179.48000000000002 A 25.64 25.64 0 0 1  410.24 153.84 L 384.6 179.48000000000002 A 25.64 25.64 0 0 0 410.24 153.84" fill="#787e7e"/><path d="M 410.24 179.48000000000002 A 25.64 25.64 0 0 1  435.88 153.84 L 410.24 179.48000000000002 A 25.64 25.64 0 0 0 435.88 153.84" fill="#f5f5dc"/><path d="M 435.88 179.48000000000002 A 25.64 25.64 0 0 1  461.52 153.84 L 435.88 179.48000000000002 A 25.64 25.64 0 0 0 461.52 153.84" fill="#6c7475"/><path d="M 461.52 153.84 A 25.64 25.64 0 0 1  487.15999999999997 179.48000000000002 L 461.52 153.84 A 25.64 25.64 0 0 0 487.15999999999997 179.48000000000002" fill="#f5f5dc"/><path d="M 487.16 179.48000000000002 A 25.64 25.64 0 0 1  512.8000000000001 153.84 L 487.16 179.48000000000002 A 25.64 25.64 0 0 0 512.8000000000001 153.84" fill="#dbdbc6"/><path d="M 0 205.12 A 25.64 25.64 0 0 1  25.64 179.48 L 0 205.12 A 25.64 25.64 0 0 0 25.64 179.48" fill="#d3d3be"/><path d="M 25.64 179.48 A 25.64 25.64 0 0 1  51.28 205.12 L 25.64 179.48 A 25.64 25.64 0 0 0 51.28 205.12" fill="#f5f5dc"/><path d="M 51.28 179.48 A 25.64 25.64 0 0 1  76.92 205.12 L 51.28 179.48 A 25.64 25.64 0 0 0 76.92 205.12" fill="#8a908c"/><path d="M 76.92 205.12 A 25.64 25.64 0 0 1  102.56 179.48 L 76.92 205.12 A 25.64 25.64 0 0 0 102.56 179.48" fill="#b1b1a1"/><path d="M 102.56 179.48 A 25.64 25.64 0 0 1  128.2 205.12 L 102.56 179.48 A 25.64 25.64 0 0 0 128.2 205.12" fill="#f5f5dc"/><path d="M 128.2 205.12 A 25.64 25.64 0 0 1  153.83999999999997 179.48 L 128.2 205.12 A 25.64 25.64 0 0 0 153.83999999999997 179.48" fill="#c7c7b4"/><path d="M 153.84 205.12 A 25.64 25.64 0 0 1  179.48000000000002 179.48 L 153.84 205.12 A 25.64 25.64 0 0 0 179.48000000000002 179.48" fill="#f5f5dc"/><path d="M 179.48 179.48 A 25.64 25.64 0 0 1  205.12 205.12 L 179.48 179.48 A 25.64 25.64 0 0 0 205.12 205.12" fill="#f5f5dc"/><path d="M 205.12 179.48 A 25.64 25.64 0 0 1  230.76 205.12 L 205.12 179.48 A 25.64 25.64 0 0 0 230.76 205.12" fill="#f5f5dc"/><path d="M 230.76 205.12 A 25.64 25.64 0 0 1  256.4 179.48 L 230.76 205.12 A 25.64 25.64 0 0 0 256.4 179.48" fill="#7d7d73"/><path d="M 256.4 205.12 A 25.64 25.64 0 0 1  282.03999999999996 179.48 L 256.4 205.12 A 25.64 25.64 0 0 0 282.03999999999996 179.48" fill="#f5f5dc"/><path d="M 282.04 205.12 A 25.64 25.64 0 0 1  307.68 179.48 L 282.04 205.12 A 25.64 25.64 0 0 0 307.68 179.48" fill="#565651"/><path d="M 307.68 179.48 A 25.64 25.64 0 0 1  333.32 205.12 L 307.68 179.48 A 25.64 25.64 0 0 0 333.32 205.12" fill="#f5f5dc"/><path d="M 333.32 205.12 A 25.64 25.64 0 0 1  358.96 179.48 L 333.32 205.12 A 25.64 25.64 0 0 0 358.96 179.48" fill="#a1a193"/><path d="M 358.96 205.12 A 25.64 25.64 0 0 1  384.59999999999997 179.48 L 358.96 205.12 A 25.64 25.64 0 0 0 384.59999999999997 179.48" fill="#5f676b"/><path d="M 384.6 179.48 A 25.64 25.64 0 0 1  410.24 205.12 L 384.6 179.48 A 25.64 25.64 0 0 0 410.24 205.12" fill="#f5f5dc"/><path d="M 410.24 205.12 A 25.64 25.64 0 0 1  435.88 179.48 L 410.24 205.12 A 25.64 25.64 0 0 0 435.88 179.48" fill="#818177"/><path d="M 435.88 205.12 A 25.64 25.64 0 0 1  461.52 179.48 L 435.88 205.12 A 25.64 25.64 0 0 0 461.52 179.48" fill="#f5f5dc"/><path d="M 461.52 179.48 A 25.64 25.64 0 0 1  487.15999999999997 205.12 L 461.52 179.48 A 25.64 25.64 0 0 0 487.15999999999997 205.12" fill="#f5f5dc"/><path d="M 487.16 179.48 A 25.64 25.64 0 0 1  512.8000000000001 205.12 L 487.16 179.48 A 25.64 25.64 0 0 0 512.8000000000001 205.12" fill="#5e666b"/><path d="M 0 205.12 A 25.64 25.64 0 0 1  25.64 230.76 L 0 205.12 A 25.64 25.64 0 0 0 25.64 230.76" fill="#f5f5dc"/><path d="M 25.64 230.76 A 25.64 25.64 0 0 1  51.28 205.12 L 25.64 230.76 A 25.64 25.64 0 0 0 51.28 205.12" fill="#dedfcb"/><path d="M 51.28 230.76 A 25.64 25.64 0 0 1  76.92 205.12 L 51.28 230.76 A 25.64 25.64 0 0 0 76.92 205.12" fill="#9b9b8d"/><path d="M 76.92 205.12 A 25.64 25.64 0 0 1  102.56 230.76 L 76.92 205.12 A 25.64 25.64 0 0 0 102.56 230.76" fill="#bebeac"/><path d="M 102.56 205.12 A 25.64 25.64 0 0 1  128.2 230.76 L 102.56 205.12 A 25.64 25.64 0 0 0 128.2 230.76" fill="#e4e5cf"/><path d="M 128.2 205.12 A 25.64 25.64 0 0 1  153.83999999999997 230.76 L 128.2 205.12 A 25.64 25.64 0 0 0 153.83999999999997 230.76" fill="#f5f5dc"/><path d="M 153.84 230.76 A 25.64 25.64 0 0 1  179.48000000000002 205.12 L 153.84 230.76 A 25.64 25.64 0 0 0 179.48000000000002 205.12" fill="#838379"/><path d="M 179.48 205.12 A 25.64 25.64 0 0 1  205.12 230.76 L 179.48 205.12 A 25.64 25.64 0 0 0 205.12 230.76" fill="#f5f5dc"/><path d="M 205.12 230.76 A 25.64 25.64 0 0 1  230.76 205.12 L 205.12 230.76 A 25.64 25.64 0 0 0 230.76 205.12" fill="#d6d7c4"/><path d="M 230.76 230.76 A 25.64 25.64 0 0 1  256.4 205.12 L 230.76 230.76 A 25.64 25.64 0 0 0 256.4 205.12" fill="#6e6e66"/><path d="M 256.4 230.76 A 25.64 25.64 0 0 1  282.03999999999996 205.12 L 256.4 230.76 A 25.64 25.64 0 0 0 282.03999999999996 205.12" fill="#f5f5dc"/><path d="M 282.04 205.12 A 25.64 25.64 0 0 1  307.68 230.76 L 282.04 205.12 A 25.64 25.64 0 0 0 307.68 230.76" fill="#697073"/><path d="M 307.68 230.76 A 25.64 25.64 0 0 1  333.32 205.12 L 307.68 230.76 A 25.64 25.64 0 0 0 333.32 205.12" fill="#828278"/><path d="M 333.32 230.76 A 25.64 25.64 0 0 1  358.96 205.12 L 333.32 230.76 A 25.64 25.64 0 0 0 358.96 205.12" fill="#a2a294"/><path d="M 358.96 205.12 A 25.64 25.64 0 0 1  384.59999999999997 230.76 L 358.96 205.12 A 25.64 25.64 0 0 0 384.59999999999997 230.76" fill="#f5f5dc"/><path d="M 384.6 205.12 A 25.64 25.64 0 0 1  410.24 230.76 L 384.6 205.12 A 25.64 25.64 0 0 0 410.24 230.76" fill="#e1e2cd"/><path d="M 410.24 230.76 A 25.64 25.64 0 0 1  435.88 205.12 L 410.24 230.76 A 25.64 25.64 0 0 0 435.88 205.12" fill="#bfbfad"/><path d="M 435.88 230.76 A 25.64 25.64 0 0 1  461.52 205.12 L 435.88 230.76 A 25.64 25.64 0 0 0 461.52 205.12" fill="#ededd5"/><path d="M 461.52 230.76 A 25.64 25.64 0 0 1  487.15999999999997 205.12 L 461.52 230.76 A 25.64 25.64 0 0 0 487.15999999999997 205.12" fill="#f5f5dc"/><path d="M 487.16 205.12 A 25.64 25.64 0 0 1  512.8000000000001 230.76 L 487.16 205.12 A 25.64 25.64 0 0 0 512.8000000000001 230.76" fill="#a9a999"/><path d="M 0 256.4 A 25.64 25.64 0 0 1  25.64 230.76 L 0 256.4 A 25.64 25.64 0 0 0 25.64 230.76" fill="#adb1a6"/><path d="M 25.64 256.4 A 25.64 25.64 0 0 1  51.28 230.76 L 25.64 256.4 A 25.64 25.64 0 0 0 51.28 230.76" fill="#f5f5dc"/><path d="M 51.28 256.4 A 25.64 25.64 0 0 1  76.92 230.76 L 51.28 256.4 A 25.64 25.64 0 0 0 76.92 230.76" fill="#f5f5dc"/><path d="M 76.92 230.76 A 25.64 25.64 0 0 1  102.56 256.4 L 76.92 230.76 A 25.64 25.64 0 0 0 102.56 256.4" fill="#f5f5dc"/><path d="M 102.56 256.4 A 25.64 25.64 0 0 1  128.2 230.76 L 102.56 256.4 A 25.64 25.64 0 0 0 128.2 230.76" fill="#d2d2be"/><path d="M 128.2 256.4 A 25.64 25.64 0 0 1  153.83999999999997 230.76 L 128.2 256.4 A 25.64 25.64 0 0 0 153.83999999999997 230.76" fill="#87877c"/><path d="M 153.84 230.76 A 25.64 25.64 0 0 1  179.48000000000002 256.4 L 153.84 230.76 A 25.64 25.64 0 0 0 179.48000000000002 256.4" fill="#f5f5dc"/><path d="M 179.48 256.4 A 25.64 25.64 0 0 1  205.12 230.76 L 179.48 256.4 A 25.64 25.64 0 0 0 205.12 230.76" fill="#f5f5dc"/><path d="M 205.12 230.76 A 25.64 25.64 0 0 1  230.76 256.4 L 205.12 230.76 A 25.64 25.64 0 0 0 230.76 256.4" fill="#b1b4a9"/><path d="M 230.76 256.4 A 25.64 25.64 0 0 1  256.4 230.76 L 230.76 256.4 A 25.64 25.64 0 0 0 256.4 230.76" fill="#b0b4a8"/><path d="M 256.4 256.4 A 25.64 25.64 0 0 1  282.03999999999996 230.76 L 256.4 256.4 A 25.64 25.64 0 0 0 282.03999999999996 230.76" fill="#4d4d49"/><path d="M 282.04 256.4 A 25.64 25.64 0 0 1  307.68 230.76 L 282.04 256.4 A 25.64 25.64 0 0 0 307.68 230.76" fill="#4c4c48"/><path d="M 307.68 230.76 A 25.64 25.64 0 0 1  333.32 256.4 L 307.68 230.76 A 25.64 25.64 0 0 0 333.32 256.4" fill="#f3f3da"/><path d="M 333.32 256.4 A 25.64 25.64 0 0 1  358.96 230.76 L 333.32 256.4 A 25.64 25.64 0 0 0 358.96 230.76" fill="#50504c"/><path d="M 358.96 230.76 A 25.64 25.64 0 0 1  384.59999999999997 256.4 L 358.96 230.76 A 25.64 25.64 0 0 0 384.59999999999997 256.4" fill="#9c9c8e"/><path d="M 384.6 230.76 A 25.64 25.64 0 0 1  410.24 256.4 L 384.6 230.76 A 25.64 25.64 0 0 0 410.24 256.4" fill="#f5f5dc"/><path d="M 410.24 230.76 A 25.64 25.64 0 0 1  435.88 256.4 L 410.24 230.76 A 25.64 25.64 0 0 0 435.88 256.4" fill="#f5f5dc"/><path d="M 435.88 256.4 A 25.64 25.64 0 0 1  461.52 230.76 L 435.88 256.4 A 25.64 25.64 0 0 0 461.52 230.76" fill="#f5f5dc"/><path d="M 461.52 256.4 A 25.64 25.64 0 0 1  487.15999999999997 230.76 L 461.52 256.4 A 25.64 25.64 0 0 0 487.15999999999997 230.76" fill="#abab9c"/><path d="M 487.16 230.76 A 25.64 25.64 0 0 1  512.8000000000001 256.4 L 487.16 230.76 A 25.64 25.64 0 0 0 512.8000000000001 256.4" fill="#707778"/><path d="M 0 282.03999999999996 A 25.64 25.64 0 0 1  25.64 256.4 L 0 282.03999999999996 A 25.64 25.64 0 0 0 25.64 256.4" fill="#f5f5dc"/><path d="M 25.64 256.4 A 25.64 25.64 0 0 1  51.28 282.03999999999996 L 25.64 256.4 A 25.64 25.64 0 0 0 51.28 282.03999999999996" fill="#6b7375"/><path d="M 51.28 282.03999999999996 A 25.64 25.64 0 0 1  76.92 256.4 L 51.28 282.03999999999996 A 25.64 25.64 0 0 0 76.92 256.4" fill="#b9b9a8"/><path d="M 76.92 282.03999999999996 A 25.64 25.64 0 0 1  102.56 256.4 L 76.92 282.03999999999996 A 25.64 25.64 0 0 0 102.56 256.4" fill="#f5f5dc"/><path d="M 102.56 256.4 A 25.64 25.64 0 0 1  128.2 282.03999999999996 L 102.56 256.4 A 25.64 25.64 0 0 0 128.2 282.03999999999996" fill="#f5f5dc"/><path d="M 128.2 282.03999999999996 A 25.64 25.64 0 0 1  153.83999999999997 256.4 L 128.2 282.03999999999996 A 25.64 25.64 0 0 0 153.83999999999997 256.4" fill="#75756c"/><path d="M 153.84 256.4 A 25.64 25.64 0 0 1  179.48000000000002 282.03999999999996 L 153.84 256.4 A 25.64 25.64 0 0 0 179.48000000000002 282.03999999999996" fill="#f5f5dc"/><path d="M 179.48 256.4 A 25.64 25.64 0 0 1  205.12 282.03999999999996 L 179.48 256.4 A 25.64 25.64 0 0 0 205.12 282.03999999999996" fill="#bfc2b4"/><path d="M 205.12 282.03999999999996 A 25.64 25.64 0 0 1  230.76 256.4 L 205.12 282.03999999999996 A 25.64 25.64 0 0 0 230.76 256.4" fill="#767d7d"/><path d="M 230.76 282.03999999999996 A 25.64 25.64 0 0 1  256.4 256.4 L 230.76 282.03999999999996 A 25.64 25.64 0 0 0 256.4 256.4" fill="#f5f5dc"/><path d="M 256.4 282.03999999999996 A 25.64 25.64 0 0 1  282.03999999999996 256.4 L 256.4 282.03999999999996 A 25.64 25.64 0 0 0 282.03999999999996 256.4" fill="#f5f5dc"/><path d="M 282.04 256.4 A 25.64 25.64 0 0 1  307.68 282.03999999999996 L 282.04 256.4 A 25.64 25.64 0 0 0 307.68 282.03999999999996" fill="#f5f5dc"/><path d="M 307.68 256.4 A 25.64 25.64 0 0 1  333.32 282.03999999999996 L 307.68 256.4 A 25.64 25.64 0 0 0 333.32 282.03999999999996" fill="#a4a496"/><path d="M 333.32 282.03999999999996 A 25.64 25.64 0 0 1  358.96 256.4 L 333.32 282.03999999999996 A 25.64 25.64 0 0 0 358.96 256.4" fill="#f5f5dc"/><path d="M 358.96 282.03999999999996 A 25.64 25.64 0 0 1  384.59999999999997 256.4 L 358.96 282.03999999999996 A 25.64 25.64 0 0 0 384.59999999999997 256.4" fill="#6d7476"/><path d="M 384.6 282.03999999999996 A 25.64 25.64 0 0 1  410.24 256.4 L 384.6 282.03999999999996 A 25.64 25.64 0 0 0 410.24 256.4" fill="#c2c2af"/><path d="M 410.24 282.03999999999996 A 25.64 25.64 0 0 1  435.88 256.4 L 410.24 282.03999999999996 A 25.64 25.64 0 0 0 435.88 256.4" fill="#f5f5dc"/><path d="M 435.88 282.03999999999996 A 25.64 25.64 0 0 1  461.52 256.4 L 435.88 282.03999999999996 A 25.64 25.64 0 0 0 461.52 256.4" fill="#f5f5dc"/><path d="M 461.52 282.03999999999996 A 25.64 25.64 0 0 1  487.15999999999997 256.4 L 461.52 282.03999999999996 A 25.64 25.64 0 0 0 487.15999999999997 256.4" fill="#f5f5dc"/><path d="M 487.16 256.4 A 25.64 25.64 0 0 1  512.8000000000001 282.03999999999996 L 487.16 256.4 A 25.64 25.64 0 0 0 512.8000000000001 282.03999999999996" fill="#f5f5dc"/><path d="M 0 307.68 A 25.64 25.64 0 0 1  25.64 282.04 L 0 307.68 A 25.64 25.64 0 0 0 25.64 282.04" fill="#bdbdab"/><path d="M 25.64 282.04 A 25.64 25.64 0 0 1  51.28 307.68 L 25.64 282.04 A 25.64 25.64 0 0 0 51.28 307.68" fill="#8b8b7f"/><path d="M 51.28 307.68 A 25.64 25.64 0 0 1  76.92 282.04 L 51.28 307.68 A 25.64 25.64 0 0 0 76.92 282.04" fill="#e8e8d2"/><path d="M 76.92 307.68 A 25.64 25.64 0 0 1  102.56 282.04 L 76.92 307.68 A 25.64 25.64 0 0 0 102.56 282.04" fill="#f5f5dc"/><path d="M 102.56 307.68 A 25.64 25.64 0 0 1  128.2 282.04 L 102.56 307.68 A 25.64 25.64 0 0 0 128.2 282.04" fill="#f5f5dc"/><path d="M 128.2 307.68 A 25.64 25.64 0 0 1  153.83999999999997 282.04 L 128.2 307.68 A 25.64 25.64 0 0 0 153.83999999999997 282.04" fill="#545d63"/><path d="M 153.84 282.04 A 25.64 25.64 0 0 1  179.48000000000002 307.68 L 153.84 282.04 A 25.64 25.64 0 0 0 179.48000000000002 307.68" fill="#c5c8b8"/><path d="M 179.48 282.04 A 25.64 25.64 0 0 1  205.12 307.68 L 179.48 282.04 A 25.64 25.64 0 0 0 205.12 307.68" fill="#f5f5dc"/><path d="M 205.12 282.04 A 25.64 25.64 0 0 1  230.76 307.68 L 205.12 282.04 A 25.64 25.64 0 0 0 230.76 307.68" fill="#f5f5dc"/><path d="M 230.76 307.68 A 25.64 25.64 0 0 1  256.4 282.04 L 230.76 307.68 A 25.64 25.64 0 0 0 256.4 282.04" fill="#f5f5dc"/><path d="M 256.4 282.04 A 25.64 25.64 0 0 1  282.03999999999996 307.68 L 256.4 282.04 A 25.64 25.64 0 0 0 282.03999999999996 307.68" fill="#565e64"/><path d="M 282.04 307.68 A 25.64 25.64 0 0 1  307.68 282.04 L 282.04 307.68 A 25.64 25.64 0 0 0 307.68 282.04" fill="#8c8c80"/><path d="M 307.68 282.04 A 25.64 25.64 0 0 1  333.32 307.68 L 307.68 282.04 A 25.64 25.64 0 0 0 333.32 307.68" fill="#aeb2a7"/><path d="M 333.32 282.04 A 25.64 25.64 0 0 1  358.96 307.68 L 333.32 282.04 A 25.64 25.64 0 0 0 358.96 307.68" fill="#f5f5dc"/><path d="M 358.96 307.68 A 25.64 25.64 0 0 1  384.59999999999997 282.04 L 358.96 307.68 A 25.64 25.64 0 0 0 384.59999999999997 282.04" fill="#b2b6aa"/><path d="M 384.6 282.04 A 25.64 25.64 0 0 1  410.24 307.68 L 384.6 282.04 A 25.64 25.64 0 0 0 410.24 307.68" fill="#f5f5dc"/><path d="M 410.24 282.04 A 25.64 25.64 0 0 1  435.88 307.68 L 410.24 282.04 A 25.64 25.64 0 0 0 435.88 307.68" fill="#d5d6c4"/><path d="M 435.88 282.04 A 25.64 25.64 0 0 1  461.52 307.68 L 435.88 282.04 A 25.64 25.64 0 0 0 461.52 307.68" fill="#a0a59c"/><path d="M 461.52 282.04 A 25.64 25.64 0 0 1  487.15999999999997 307.68 L 461.52 282.04 A 25.64 25.64 0 0 0 487.15999999999997 307.68" fill="#4d4d49"/><path d="M 487.16 307.68 A 25.64 25.64 0 0 1  512.8000000000001 282.04 L 487.16 307.68 A 25.64 25.64 0 0 0 512.8000000000001 282.04" fill="#e5e6d0"/><path d="M 0 333.32 A 25.64 25.64 0 0 1  25.64 307.68 L 0 333.32 A 25.64 25.64 0 0 0 25.64 307.68" fill="#bdc0b2"/><path d="M 25.64 333.32 A 25.64 25.64 0 0 1  51.28 307.68 L 25.64 333.32 A 25.64 25.64 0 0 0 51.28 307.68" fill="#f5f5dc"/><path d="M 51.28 333.32 A 25.64 25.64 0 0 1  76.92 307.68 L 51.28 333.32 A 25.64 25.64 0 0 0 76.92 307.68" fill="#d5d6c4"/><path d="M 76.92 333.32 A 25.64 25.64 0 0 1  102.56 307.68 L 76.92 333.32 A 25.64 25.64 0 0 0 102.56 307.68" fill="#c8caba"/><path d="M 102.56 333.32 A 25.64 25.64 0 0 1  128.2 307.68 L 102.56 333.32 A 25.64 25.64 0 0 0 128.2 307.68" fill="#7f8684"/><path d="M 128.2 307.68 A 25.64 25.64 0 0 1  153.83999999999997 333.32 L 128.2 307.68 A 25.64 25.64 0 0 0 153.83999999999997 333.32" fill="#f5f5dc"/><path d="M 153.84 307.68 A 25.64 25.64 0 0 1  179.48000000000002 333.32 L 153.84 307.68 A 25.64 25.64 0 0 0 179.48000000000002 333.32" fill="#e4e4cd"/><path d="M 179.48 333.32 A 25.64 25.64 0 0 1  205.12 307.68 L 179.48 333.32 A 25.64 25.64 0 0 0 205.12 307.68" fill="#e5e5ce"/><path d="M 205.12 333.32 A 25.64 25.64 0 0 1  230.76 307.68 L 205.12 333.32 A 25.64 25.64 0 0 0 230.76 307.68" fill="#f5f5dc"/><path d="M 230.76 333.32 A 25.64 25.64 0 0 1  256.4 307.68 L 230.76 333.32 A 25.64 25.64 0 0 0 256.4 307.68" fill="#5b6469"/><path d="M 256.4 307.68 A 25.64 25.64 0 0 1  282.03999999999996 333.32 L 256.4 307.68 A 25.64 25.64 0 0 0 282.03999999999996 333.32" fill="#f0f0d8"/><path d="M 282.04 307.68 A 25.64 25.64 0 0 1  307.68 333.32 L 282.04 307.68 A 25.64 25.64 0 0 0 307.68 333.32" fill="#f5f5dc"/><path d="M 307.68 333.32 A 25.64 25.64 0 0 1  333.32 307.68 L 307.68 333.32 A 25.64 25.64 0 0 0 333.32 307.68" fill="#f5f5dc"/><path d="M 333.32 333.32 A 25.64 25.64 0 0 1  358.96 307.68 L 333.32 333.32 A 25.64 25.64 0 0 0 358.96 307.68" fill="#808075"/><path d="M 358.96 333.32 A 25.64 25.64 0 0 1  384.59999999999997 307.68 L 358.96 333.32 A 25.64 25.64 0 0 0 384.59999999999997 307.68" fill="#d9d9c3"/><path d="M 384.6 333.32 A 25.64 25.64 0 0 1  410.24 307.68 L 384.6 333.32 A 25.64 25.64 0 0 0 410.24 307.68" fill="#f5f5dc"/><path d="M 410.24 333.32 A 25.64 25.64 0 0 1  435.88 307.68 L 410.24 333.32 A 25.64 25.64 0 0 0 435.88 307.68" fill="#7f7f75"/><path d="M 435.88 307.68 A 25.64 25.64 0 0 1  461.52 333.32 L 435.88 307.68 A 25.64 25.64 0 0 0 461.52 333.32" fill="#e3e4ce"/><path d="M 461.52 333.32 A 25.64 25.64 0 0 1  487.15999999999997 307.68 L 461.52 333.32 A 25.64 25.64 0 0 0 487.15999999999997 307.68" fill="#f5f5dc"/><path d="M 487.16 307.68 A 25.64 25.64 0 0 1  512.8000000000001 333.32 L 487.16 307.68 A 25.64 25.64 0 0 0 512.8000000000001 333.32" fill="#f5f5dc"/><path d="M 0 358.96 A 25.64 25.64 0 0 1  25.64 333.32 L 0 358.96 A 25.64 25.64 0 0 0 25.64 333.32" fill="#949488"/><path d="M 25.64 358.96 A 25.64 25.64 0 0 1  51.28 333.32 L 25.64 358.96 A 25.64 25.64 0 0 0 51.28 333.32" fill="#676760"/><path d="M 51.28 333.32 A 25.64 25.64 0 0 1  76.92 358.96 L 51.28 333.32 A 25.64 25.64 0 0 0 76.92 358.96" fill="#777e7d"/><path d="M 76.92 358.96 A 25.64 25.64 0 0 1  102.56 333.32 L 76.92 358.96 A 25.64 25.64 0 0 0 102.56 333.32" fill="#f5f5dc"/><path d="M 102.56 358.96 A 25.64 25.64 0 0 1  128.2 333.32 L 102.56 358.96 A 25.64 25.64 0 0 0 128.2 333.32" fill="#5b6368"/><path d="M 128.2 358.96 A 25.64 25.64 0 0 1  153.83999999999997 333.32 L 128.2 358.96 A 25.64 25.64 0 0 0 153.83999999999997 333.32" fill="#f5f5dc"/><path d="M 153.84 333.32 A 25.64 25.64 0 0 1  179.48000000000002 358.96 L 153.84 333.32 A 25.64 25.64 0 0 0 179.48000000000002 358.96" fill="#bbbbaa"/><path d="M 179.48 333.32 A 25.64 25.64 0 0 1  205.12 358.96 L 179.48 333.32 A 25.64 25.64 0 0 0 205.12 358.96" fill="#6f7678"/><path d="M 205.12 358.96 A 25.64 25.64 0 0 1  230.76 333.32 L 205.12 358.96 A 25.64 25.64 0 0 0 230.76 333.32" fill="#79796f"/><path d="M 230.76 358.96 A 25.64 25.64 0 0 1  256.4 333.32 L 230.76 358.96 A 25.64 25.64 0 0 0 256.4 333.32" fill="#a9a99a"/><path d="M 256.4 333.32 A 25.64 25.64 0 0 1  282.03999999999996 358.96 L 256.4 333.32 A 25.64 25.64 0 0 0 282.03999999999996 358.96" fill="#f5f5dc"/><path d="M 282.04 358.96 A 25.64 25.64 0 0 1  307.68 333.32 L 282.04 358.96 A 25.64 25.64 0 0 0 307.68 333.32" fill="#eaebd4"/><path d="M 307.68 333.32 A 25.64 25.64 0 0 1  333.32 358.96 L 307.68 333.32 A 25.64 25.64 0 0 0 333.32 358.96" fill="#5c5c56"/><path d="M 333.32 358.96 A 25.64 25.64 0 0 1  358.96 333.32 L 333.32 358.96 A 25.64 25.64 0 0 0 358.96 333.32" fill="#6f7678"/><path d="M 358.96 358.96 A 25.64 25.64 0 0 1  384.59999999999997 333.32 L 358.96 358.96 A 25.64 25.64 0 0 0 384.59999999999997 333.32" fill="#545d63"/><path d="M 384.6 358.96 A 25.64 25.64 0 0 1  410.24 333.32 L 384.6 358.96 A 25.64 25.64 0 0 0 410.24 333.32" fill="#6e7577"/><path d="M 410.24 333.32 A 25.64 25.64 0 0 1  435.88 358.96 L 410.24 333.32 A 25.64 25.64 0 0 0 435.88 358.96" fill="#77776e"/><path d="M 435.88 358.96 A 25.64 25.64 0 0 1  461.52 333.32 L 435.88 358.96 A 25.64 25.64 0 0 0 461.52 333.32" fill="#5a5a55"/><path d="M 461.52 333.32 A 25.64 25.64 0 0 1  487.15999999999997 358.96 L 461.52 333.32 A 25.64 25.64 0 0 0 487.15999999999997 358.96" fill="#e5e5d0"/><path d="M 487.16 358.96 A 25.64 25.64 0 0 1  512.8000000000001 333.32 L 487.16 358.96 A 25.64 25.64 0 0 0 512.8000000000001 333.32" fill="#d5d7c4"/><path d="M 0 384.59999999999997 A 25.64 25.64 0 0 1  25.64 358.96 L 0 384.59999999999997 A 25.64 25.64 0 0 0 25.64 358.96" fill="#f5f5dc"/><path d="M 25.64 358.96 A 25.64 25.64 0 0 1  51.28 384.59999999999997 L 25.64 358.96 A 25.64 25.64 0 0 0 51.28 384.59999999999997" fill="#6a7274"/><path d="M 51.28 384.59999999999997 A 25.64 25.64 0 0 1  76.92 358.96 L 51.28 384.59999999999997 A 25.64 25.64 0 0 0 76.92 358.96" fill="#818785"/><path d="M 76.92 384.59999999999997 A 25.64 25.64 0 0 1  102.56 358.96 L 76.92 384.59999999999997 A 25.64 25.64 0 0 0 102.56 358.96" fill="#909590"/><path d="M 102.56 358.96 A 25.64 25.64 0 0 1  128.2 384.59999999999997 L 102.56 358.96 A 25.64 25.64 0 0 0 128.2 384.59999999999997" fill="#f5f5dc"/><path d="M 128.2 384.59999999999997 A 25.64 25.64 0 0 1  153.83999999999997 358.96 L 128.2 384.59999999999997 A 25.64 25.64 0 0 0 153.83999999999997 358.96" fill="#b5b5a4"/><path d="M 153.84 358.96 A 25.64 25.64 0 0 1  179.48000000000002 384.59999999999997 L 153.84 358.96 A 25.64 25.64 0 0 0 179.48000000000002 384.59999999999997" fill="#6d6d65"/><path d="M 179.48 358.96 A 25.64 25.64 0 0 1  205.12 384.59999999999997 L 179.48 358.96 A 25.64 25.64 0 0 0 205.12 384.59999999999997" fill="#f5f5dc"/><path d="M 205.12 358.96 A 25.64 25.64 0 0 1  230.76 384.59999999999997 L 205.12 358.96 A 25.64 25.64 0 0 0 230.76 384.59999999999997" fill="#cfcfba"/><path d="M 230.76 358.96 A 25.64 25.64 0 0 1  256.4 384.59999999999997 L 230.76 358.96 A 25.64 25.64 0 0 0 256.4 384.59999999999997" fill="#909083"/><path d="M 256.4 384.59999999999997 A 25.64 25.64 0 0 1  282.03999999999996 358.96 L 256.4 384.59999999999997 A 25.64 25.64 0 0 0 282.03999999999996 358.96" fill="#f5f5dc"/><path d="M 282.04 358.96 A 25.64 25.64 0 0 1  307.68 384.59999999999997 L 282.04 358.96 A 25.64 25.64 0 0 0 307.68 384.59999999999997" fill="#b2b2a1"/><path d="M 307.68 384.59999999999997 A 25.64 25.64 0 0 1  333.32 358.96 L 307.68 384.59999999999997 A 25.64 25.64 0 0 0 333.32 358.96" fill="#63635c"/><path d="M 333.32 358.96 A 25.64 25.64 0 0 1  358.96 384.59999999999997 L 333.32 358.96 A 25.64 25.64 0 0 0 358.96 384.59999999999997" fill="#f3f3da"/><path d="M 358.96 358.96 A 25.64 25.64 0 0 1  384.59999999999997 384.59999999999997 L 358.96 358.96 A 25.64 25.64 0 0 0 384.59999999999997 384.59999999999997" fill="#484844"/><path d="M 384.6 384.59999999999997 A 25.64 25.64 0 0 1  410.24 358.96 L 384.6 384.59999999999997 A 25.64 25.64 0 0 0 410.24 358.96" fill="#b0b0a0"/><path d="M 410.24 358.96 A 25.64 25.64 0 0 1  435.88 384.59999999999997 L 410.24 358.96 A 25.64 25.64 0 0 0 435.88 384.59999999999997" fill="#f5f5dc"/><path d="M 435.88 384.59999999999997 A 25.64 25.64 0 0 1  461.52 358.96 L 435.88 384.59999999999997 A 25.64 25.64 0 0 0 461.52 358.96" fill="#a8a899"/><path d="M 461.52 384.59999999999997 A 25.64 25.64 0 0 1  487.15999999999997 358.96 L 461.52 384.59999999999997 A 25.64 25.64 0 0 0 487.15999999999997 358.96" fill="#f5f5dc"/><path d="M 487.16 384.59999999999997 A 25.64 25.64 0 0 1  512.8000000000001 358.96 L 487.16 384.59999999999997 A 25.64 25.64 0 0 0 512.8000000000001 358.96" fill="#7d8382"/><path d="M 0 410.24 A 25.64 25.64 0 0 1  25.64 384.6 L 0 410.24 A 25.64 25.64 0 0 0 25.64 384.6" fill="#75756d"/><path d="M 25.64 410.24 A 25.64 25.64 0 0 1  51.28 384.6 L 25.64 410.24 A 25.64 25.64 0 0 0 51.28 384.6" fill="#f5f5dc"/><path d="M 51.28 410.24 A 25.64 25.64 0 0 1  76.92 384.6 L 51.28 410.24 A 25.64 25.64 0 0 0 76.92 384.6" fill="#f5f5dc"/><path d="M 76.92 384.6 A 25.64 25.64 0 0 1  102.56 410.24 L 76.92 384.6 A 25.64 25.64 0 0 0 102.56 410.24" fill="#b1b1a1"/><path d="M 102.56 384.6 A 25.64 25.64 0 0 1  128.2 410.24 L 102.56 384.6 A 25.64 25.64 0 0 0 128.2 410.24" fill="#858b88"/><path d="M 128.2 384.6 A 25.64 25.64 0 0 1  153.83999999999997 410.24 L 128.2 384.6 A 25.64 25.64 0 0 0 153.83999999999997 410.24" fill="#f5f5dc"/><path d="M 153.84 384.6 A 25.64 25.64 0 0 1  179.48000000000002 410.24 L 153.84 384.6 A 25.64 25.64 0 0 0 179.48000000000002 410.24" fill="#eaead2"/><path d="M 179.48 410.24 A 25.64 25.64 0 0 1  205.12 384.6 L 179.48 410.24 A 25.64 25.64 0 0 0 205.12 384.6" fill="#f5f5dc"/><path d="M 205.12 384.6 A 25.64 25.64 0 0 1  230.76 410.24 L 205.12 384.6 A 25.64 25.64 0 0 0 230.76 410.24" fill="#86867b"/><path d="M 230.76 410.24 A 25.64 25.64 0 0 1  256.4 384.6 L 230.76 410.24 A 25.64 25.64 0 0 0 256.4 384.6" fill="#6c6c64"/><path d="M 256.4 410.24 A 25.64 25.64 0 0 1  282.03999999999996 384.6 L 256.4 410.24 A 25.64 25.64 0 0 0 282.03999999999996 384.6" fill="#c2c5b6"/><path d="M 282.04 410.24 A 25.64 25.64 0 0 1  307.68 384.6 L 282.04 410.24 A 25.64 25.64 0 0 0 307.68 384.6" fill="#969b95"/><path d="M 307.68 384.6 A 25.64 25.64 0 0 1  333.32 410.24 L 307.68 384.6 A 25.64 25.64 0 0 0 333.32 410.24" fill="#cdcdb9"/><path d="M 333.32 384.6 A 25.64 25.64 0 0 1  358.96 410.24 L 333.32 384.6 A 25.64 25.64 0 0 0 358.96 410.24" fill="#f5f5dc"/><path d="M 358.96 384.6 A 25.64 25.64 0 0 1  384.59999999999997 410.24 L 358.96 384.6 A 25.64 25.64 0 0 0 384.59999999999997 410.24" fill="#848b87"/><path d="M 384.6 410.24 A 25.64 25.64 0 0 1  410.24 384.6 L 384.6 410.24 A 25.64 25.64 0 0 0 410.24 384.6" fill="#5c5c57"/><path d="M 410.24 410.24 A 25.64 25.64 0 0 1  435.88 384.6 L 410.24 410.24 A 25.64 25.64 0 0 0 435.88 384.6" fill="#5c6569"/><path d="M 435.88 384.6 A 25.64 25.64 0 0 1  461.52 410.24 L 435.88 384.6 A 25.64 25.64 0 0 0 461.52 410.24" fill="#f5f5dc"/><path d="M 461.52 384.6 A 25.64 25.64 0 0 1  487.15999999999997 410.24 L 461.52 384.6 A 25.64 25.64 0 0 0 487.15999999999997 410.24" fill="#f5f5dc"/><path d="M 487.16 384.6 A 25.64 25.64 0 0 1  512.8000000000001 410.24 L 487.16 384.6 A 25.64 25.64 0 0 0 512.8000000000001 410.24" fill="#9c9c8e"/><path d="M 0 410.24 A 25.64 25.64 0 0 1  25.64 435.88 L 0 410.24 A 25.64 25.64 0 0 0 25.64 435.88" fill="#767d7d"/><path d="M 25.64 410.24 A 25.64 25.64 0 0 1  51.28 435.88 L 25.64 410.24 A 25.64 25.64 0 0 0 51.28 435.88" fill="#f5f5dc"/><path d="M 51.28 435.88 A 25.64 25.64 0 0 1  76.92 410.24 L 51.28 435.88 A 25.64 25.64 0 0 0 76.92 410.24" fill="#f5f5dc"/><path d="M 76.92 410.24 A 25.64 25.64 0 0 1  102.56 435.88 L 76.92 410.24 A 25.64 25.64 0 0 0 102.56 435.88" fill="#f5f5dc"/><path d="M 102.56 435.88 A 25.64 25.64 0 0 1  128.2 410.24 L 102.56 435.88 A 25.64 25.64 0 0 0 128.2 410.24" fill="#c7c7b4"/><path d="M 128.2 410.24 A 25.64 25.64 0 0 1  153.83999999999997 435.88 L 128.2 410.24 A 25.64 25.64 0 0 0 153.83999999999997 435.88" fill="#f5f5dc"/><path d="M 153.84 410.24 A 25.64 25.64 0 0 1  179.48000000000002 435.88 L 153.84 410.24 A 25.64 25.64 0 0 0 179.48000000000002 435.88" fill="#b7baad"/><path d="M 179.48 410.24 A 25.64 25.64 0 0 1  205.12 435.88 L 179.48 410.24 A 25.64 25.64 0 0 0 205.12 435.88" fill="#8a8a7e"/><path d="M 205.12 410.24 A 25.64 25.64 0 0 1  230.76 435.88 L 205.12 410.24 A 25.64 25.64 0 0 0 230.76 435.88" fill="#dadac5"/><path d="M 230.76 435.88 A 25.64 25.64 0 0 1  256.4 410.24 L 230.76 435.88 A 25.64 25.64 0 0 0 256.4 410.24" fill="#6b7274"/><path d="M 256.4 410.24 A 25.64 25.64 0 0 1  282.03999999999996 435.88 L 256.4 410.24 A 25.64 25.64 0 0 0 282.03999999999996 435.88" fill="#f5f5dc"/><path d="M 282.04 435.88 A 25.64 25.64 0 0 1  307.68 410.24 L 282.04 435.88 A 25.64 25.64 0 0 0 307.68 410.24" fill="#525b62"/><path d="M 307.68 435.88 A 25.64 25.64 0 0 1  333.32 410.24 L 307.68 435.88 A 25.64 25.64 0 0 0 333.32 410.24" fill="#f5f5dc"/><path d="M 333.32 435.88 A 25.64 25.64 0 0 1  358.96 410.24 L 333.32 435.88 A 25.64 25.64 0 0 0 358.96 410.24" fill="#a9a99a"/><path d="M 358.96 410.24 A 25.64 25.64 0 0 1  384.59999999999997 435.88 L 358.96 410.24 A 25.64 25.64 0 0 0 384.59999999999997 435.88" fill="#ebebd4"/><path d="M 384.6 410.24 A 25.64 25.64 0 0 1  410.24 435.88 L 384.6 410.24 A 25.64 25.64 0 0 0 410.24 435.88" fill="#f5f5dc"/><path d="M 410.24 410.24 A 25.64 25.64 0 0 1  435.88 435.88 L 410.24 410.24 A 25.64 25.64 0 0 0 435.88 435.88" fill="#f5f5dc"/><path d="M 435.88 435.88 A 25.64 25.64 0 0 1  461.52 410.24 L 435.88 435.88 A 25.64 25.64 0 0 0 461.52 410.24" fill="#f5f5dc"/><path d="M 461.52 410.24 A 25.64 25.64 0 0 1  487.15999999999997 435.88 L 461.52 410.24 A 25.64 25.64 0 0 0 487.15999999999997 435.88" fill="#6c7475"/><path d="M 487.16 435.88 A 25.64 25.64 0 0 1  512.8000000000001 410.24 L 487.16 435.88 A 25.64 25.64 0 0 0 512.8000000000001 410.24" fill="#cacdbc"/><path d="M 0 435.88 A 25.64 25.64 0 0 1  25.64 461.52 L 0 435.88 A 25.64 25.64 0 0 0 25.64 461.52" fill="#f5f5dc"/><path d="M 25.64 461.52 A 25.64 25.64 0 0 1  51.28 435.88 L 25.64 461.52 A 25.64 25.64 0 0 0 51.28 435.88" fill="#636b6f"/><path d="M 51.28 435.88 A 25.64 25.64 0 0 1  76.92 461.52 L 51.28 435.88 A 25.64 25.64 0 0 0 76.92 461.52" fill="#f5f5dc"/><path d="M 76.92 435.88 A 25.64 25.64 0 0 1  102.56 461.52 L 76.92 435.88 A 25.64 25.64 0 0 0 102.56 461.52" fill="#7b7b72"/><path d="M 102.56 461.52 A 25.64 25.64 0 0 1  128.2 435.88 L 102.56 461.52 A 25.64 25.64 0 0 0 128.2 435.88" fill="#f5f5dc"/><path d="M 128.2 435.88 A 25.64 25.64 0 0 1  153.83999999999997 461.52 L 128.2 435.88 A 25.64 25.64 0 0 0 153.83999999999997 461.52" fill="#b9bcaf"/><path d="M 153.84 435.88 A 25.64 25.64 0 0 1  179.48000000000002 461.52 L 153.84 435.88 A 25.64 25.64 0 0 0 179.48000000000002 461.52" fill="#f5f5dc"/><path d="M 179.48 435.88 A 25.64 25.64 0 0 1  205.12 461.52 L 179.48 435.88 A 25.64 25.64 0 0 0 205.12 461.52" fill="#8e948f"/><path d="M 205.12 461.52 A 25.64 25.64 0 0 1  230.76 435.88 L 205.12 461.52 A 25.64 25.64 0 0 0 230.76 435.88" fill="#acb0a5"/><path d="M 230.76 461.52 A 25.64 25.64 0 0 1  256.4 435.88 L 230.76 461.52 A 25.64 25.64 0 0 0 256.4 435.88" fill="#f5f5dc"/><path d="M 256.4 461.52 A 25.64 25.64 0 0 1  282.03999999999996 435.88 L 256.4 461.52 A 25.64 25.64 0 0 0 282.03999999999996 435.88" fill="#a2a79e"/><path d="M 282.04 435.88 A 25.64 25.64 0 0 1  307.68 461.52 L 282.04 435.88 A 25.64 25.64 0 0 0 307.68 461.52" fill="#dbdbc5"/><path d="M 307.68 435.88 A 25.64 25.64 0 0 1  333.32 461.52 L 307.68 435.88 A 25.64 25.64 0 0 0 333.32 461.52" fill="#d5d5c0"/><path d="M 333.32 461.52 A 25.64 25.64 0 0 1  358.96 435.88 L 333.32 461.52 A 25.64 25.64 0 0 0 358.96 435.88" fill="#98988b"/><path d="M 358.96 461.52 A 25.64 25.64 0 0 1  384.59999999999997 435.88 L 358.96 461.52 A 25.64 25.64 0 0 0 384.59999999999997 435.88" fill="#f5f5dc"/><path d="M 384.6 435.88 A 25.64 25.64 0 0 1  410.24 461.52 L 384.6 435.88 A 25.64 25.64 0 0 0 410.24 461.52" fill="#949a93"/><path d="M 410.24 435.88 A 25.64 25.64 0 0 1  435.88 461.52 L 410.24 435.88 A 25.64 25.64 0 0 0 435.88 461.52" fill="#5a6267"/><path d="M 435.88 435.88 A 25.64 25.64 0 0 1  461.52 461.52 L 435.88 435.88 A 25.64 25.64 0 0 0 461.52 461.52" fill="#838986"/><path d="M 461.52 461.52 A 25.64 25.64 0 0 1  487.15999999999997 435.88 L 461.52 461.52 A 25.64 25.64 0 0 0 487.15999999999997 435.88" fill="#88887c"/><path d="M 487.16 435.88 A 25.64 25.64 0 0 1  512.8000000000001 461.52 L 487.16 435.88 A 25.64 25.64 0 0 0 512.8000000000001 461.52" fill="#9a9f98"/><path d="M 0 487.15999999999997 A 25.64 25.64 0 0 1  25.64 461.52 L 0 487.15999999999997 A 25.64 25.64 0 0 0 25.64 461.52" fill="#babaa9"/><path d="M 25.64 487.15999999999997 A 25.64 25.64 0 0 1  51.28 461.52 L 25.64 487.15999999999997 A 25.64 25.64 0 0 0 51.28 461.52" fill="#a0a59c"/><path d="M 51.28 487.15999999999997 A 25.64 25.64 0 0 1  76.92 461.52 L 51.28 487.15999999999997 A 25.64 25.64 0 0 0 76.92 461.52" fill="#5f5f59"/><path d="M 76.92 461.52 A 25.64 25.64 0 0 1  102.56 487.15999999999997 L 76.92 461.52 A 25.64 25.64 0 0 0 102.56 487.15999999999997" fill="#f5f5dc"/><path d="M 102.56 461.52 A 25.64 25.64 0 0 1  128.2 487.15999999999997 L 102.56 461.52 A 25.64 25.64 0 0 0 128.2 487.15999999999997" fill="#f5f5dc"/><path d="M 128.2 487.15999999999997 A 25.64 25.64 0 0 1  153.83999999999997 461.52 L 128.2 487.15999999999997 A 25.64 25.64 0 0 0 153.83999999999997 461.52" fill="#7c8281"/><path d="M 153.84 461.52 A 25.64 25.64 0 0 1  179.48000000000002 487.15999999999997 L 153.84 461.52 A 25.64 25.64 0 0 0 179.48000000000002 487.15999999999997" fill="#f5f5dc"/><path d="M 179.48 487.15999999999997 A 25.64 25.64 0 0 1  205.12 461.52 L 179.48 487.15999999999997 A 25.64 25.64 0 0 0 205.12 461.52" fill="#4b4b48"/><path d="M 205.12 487.15999999999997 A 25.64 25.64 0 0 1  230.76 461.52 L 205.12 487.15999999999997 A 25.64 25.64 0 0 0 230.76 461.52" fill="#565651"/><path d="M 230.76 461.52 A 25.64 25.64 0 0 1  256.4 487.15999999999997 L 230.76 461.52 A 25.64 25.64 0 0 0 256.4 487.15999999999997" fill="#e5e5ce"/><path d="M 256.4 487.15999999999997 A 25.64 25.64 0 0 1  282.03999999999996 461.52 L 256.4 487.15999999999997 A 25.64 25.64 0 0 0 282.03999999999996 461.52" fill="#f5f5dc"/><path d="M 282.04 487.15999999999997 A 25.64 25.64 0 0 1  307.68 461.52 L 282.04 487.15999999999997 A 25.64 25.64 0 0 0 307.68 461.52" fill="#586166"/><path d="M 307.68 487.15999999999997 A 25.64 25.64 0 0 1  333.32 461.52 L 307.68 487.15999999999997 A 25.64 25.64 0 0 0 333.32 461.52" fill="#6c6c64"/><path d="M 333.32 461.52 A 25.64 25.64 0 0 1  358.96 487.15999999999997 L 333.32 461.52 A 25.64 25.64 0 0 0 358.96 487.15999999999997" fill="#9ea39b"/><path d="M 358.96 461.52 A 25.64 25.64 0 0 1  384.59999999999997 487.15999999999997 L 358.96 461.52 A 25.64 25.64 0 0 0 384.59999999999997 487.15999999999997" fill="#707067"/><path d="M 384.6 487.15999999999997 A 25.64 25.64 0 0 1  410.24 461.52 L 384.6 487.15999999999997 A 25.64 25.64 0 0 0 410.24 461.52" fill="#f5f5dc"/><path d="M 410.24 487.15999999999997 A 25.64 25.64 0 0 1  435.88 461.52 L 410.24 487.15999999999997 A 25.64 25.64 0 0 0 435.88 461.52" fill="#f5f5dc"/><path d="M 435.88 461.52 A 25.64 25.64 0 0 1  461.52 487.15999999999997 L 435.88 461.52 A 25.64 25.64 0 0 0 461.52 487.15999999999997" fill="#c3c3b1"/><path d="M 461.52 461.52 A 25.64 25.64 0 0 1  487.15999999999997 487.15999999999997 L 461.52 461.52 A 25.64 25.64 0 0 0 487.15999999999997 487.15999999999997" fill="#747b7b"/><path d="M 487.16 487.15999999999997 A 25.64 25.64 0 0 1  512.8000000000001 461.52 L 487.16 487.15999999999997 A 25.64 25.64 0 0 0 512.8000000000001 461.52" fill="#f5f5dc"/><path d="M 0 487.16 A 25.64 25.64 0 0 1  25.64 512.8000000000001 L 0 487.16 A 25.64 25.64 0 0 0 25.64 512.8000000000001" fill="#f5f5dc"/><path d="M 25.64 487.16 A 25.64 25.64 0 0 1  51.28 512.8000000000001 L 25.64 487.16 A 25.64 25.64 0 0 0 51.28 512.8000000000001" fill="#50504c"/><path d="M 51.28 487.16 A 25.64 25.64 0 0 1  76.92 512.8000000000001 L 51.28 487.16 A 25.64 25.64 0 0 0 76.92 512.8000000000001" fill="#9a9f98"/><path d="M 76.92 512.8000000000001 A 25.64 25.64 0 0 1  102.56 487.16 L 76.92 512.8000000000001 A 25.64 25.64 0 0 0 102.56 487.16" fill="#747b7b"/><path d="M 102.56 487.16 A 25.64 25.64 0 0 1  128.2 512.8000000000001 L 102.56 487.16 A 25.64 25.64 0 0 0 128.2 512.8000000000001" fill="#f5f5dc"/><path d="M 128.2 512.8000000000001 A 25.64 25.64 0 0 1  153.83999999999997 487.16 L 128.2 512.8000000000001 A 25.64 25.64 0 0 0 153.83999999999997 487.16" fill="#d9dbc7"/><path d="M 153.84 487.16 A 25.64 25.64 0 0 1  179.48000000000002 512.8000000000001 L 153.84 487.16 A 25.64 25.64 0 0 0 179.48000000000002 512.8000000000001" fill="#c5c8b8"/><path d="M 179.48 487.16 A 25.64 25.64 0 0 1  205.12 512.8000000000001 L 179.48 487.16 A 25.64 25.64 0 0 0 205.12 512.8000000000001" fill="#f5f5dc"/><path d="M 205.12 512.8000000000001 A 25.64 25.64 0 0 1  230.76 487.16 L 205.12 512.8000000000001 A 25.64 25.64 0 0 0 230.76 487.16" fill="#f5f5dc"/><path d="M 230.76 487.16 A 25.64 25.64 0 0 1  256.4 512.8000000000001 L 230.76 487.16 A 25.64 25.64 0 0 0 256.4 512.8000000000001" fill="#cacab7"/><path d="M 256.4 487.16 A 25.64 25.64 0 0 1  282.03999999999996 512.8000000000001 L 256.4 487.16 A 25.64 25.64 0 0 0 282.03999999999996 512.8000000000001" fill="#f5f5dc"/><path d="M 282.04 487.16 A 25.64 25.64 0 0 1  307.68 512.8000000000001 L 282.04 487.16 A 25.64 25.64 0 0 0 307.68 512.8000000000001" fill="#f5f5dc"/><path d="M 307.68 512.8000000000001 A 25.64 25.64 0 0 1  333.32 487.16 L 307.68 512.8000000000001 A 25.64 25.64 0 0 0 333.32 487.16" fill="#989d96"/><path d="M 333.32 487.16 A 25.64 25.64 0 0 1  358.96 512.8000000000001 L 333.32 487.16 A 25.64 25.64 0 0 0 358.96 512.8000000000001" fill="#6f7677"/><path d="M 358.96 487.16 A 25.64 25.64 0 0 1  384.59999999999997 512.8000000000001 L 358.96 487.16 A 25.64 25.64 0 0 0 384.59999999999997 512.8000000000001" fill="#cfd1bf"/><path d="M 384.6 512.8000000000001 A 25.64 25.64 0 0 1  410.24 487.16 L 384.6 512.8000000000001 A 25.64 25.64 0 0 0 410.24 487.16" fill="#dfdfc9"/><path d="M 410.24 487.16 A 25.64 25.64 0 0 1  435.88 512.8000000000001 L 410.24 487.16 A 25.64 25.64 0 0 0 435.88 512.8000000000001" fill="#f5f5dc"/><path d="M 435.88 512.8000000000001 A 25.64 25.64 0 0 1  461.52 487.16 L 435.88 512.8000000000001 A 25.64 25.64 0 0 0 461.52 487.16" fill="#f5f5dc"/><path d="M 461.52 487.16 A 25.64 25.64 0 0 1  487.15999999999997 512.8000000000001 L 461.52 487.16 A 25.64 25.64 0 0 0 487.15999999999997 512.8000000000001" fill="#babdb0"/><path d="M 487.16 512.8000000000001 A 25.64 25.64 0 0 1  512.8000000000001 487.16 L 487.16 512.8000000000001 A 25.64 25.64 0 0 0 512.8000000000001 487.16" fill="#f5f5dc"/><path d="M 0 538.4399999999999 A 25.64 25.64 0 0 1  25.64 512.8 L 0 538.4399999999999 A 25.64 25.64 0 0 0 25.64 512.8" fill="#535c63"/><path d="M 25.64 538.4399999999999 A 25.64 25.64 0 0 1  51.28 512.8 L 25.64 538.4399999999999 A 25.64 25.64 0 0 0 51.28 512.8" fill="#f5f5dc"/><path d="M 51.28 512.8 A 25.64 25.64 0 0 1  76.92 538.4399999999999 L 51.28 512.8 A 25.64 25.64 0 0 0 76.92 538.4399999999999" fill="#f5f5dc"/><path d="M 76.92 538.4399999999999 A 25.64 25.64 0 0 1  102.56 512.8 L 76.92 538.4399999999999 A 25.64 25.64 0 0 0 102.56 512.8" fill="#7f7f75"/><path d="M 102.56 538.4399999999999 A 25.64 25.64 0 0 1  128.2 512.8 L 102.56 538.4399999999999 A 25.64 25.64 0 0 0 128.2 512.8" fill="#d8d8c3"/><path d="M 128.2 538.4399999999999 A 25.64 25.64 0 0 1  153.83999999999997 512.8 L 128.2 538.4399999999999 A 25.64 25.64 0 0 0 153.83999999999997 512.8" fill="#f5f5dc"/><path d="M 153.84 512.8 A 25.64 25.64 0 0 1  179.48000000000002 538.4399999999999 L 153.84 512.8 A 25.64 25.64 0 0 0 179.48000000000002 538.4399999999999" fill="#d9dac7"/><path d="M 179.48 512.8 A 25.64 25.64 0 0 1  205.12 538.4399999999999 L 179.48 512.8 A 25.64 25.64 0 0 0 205.12 538.4399999999999" fill="#c1c4b5"/><path d="M 205.12 512.8 A 25.64 25.64 0 0 1  230.76 538.4399999999999 L 205.12 512.8 A 25.64 25.64 0 0 0 230.76 538.4399999999999" fill="#6e6e66"/><path d="M 230.76 512.8 A 25.64 25.64 0 0 1  256.4 538.4399999999999 L 230.76 512.8 A 25.64 25.64 0 0 0 256.4 538.4399999999999" fill="#808684"/><path d="M 256.4 538.4399999999999 A 25.64 25.64 0 0 1  282.03999999999996 512.8 L 256.4 538.4399999999999 A 25.64 25.64 0 0 0 282.03999999999996 512.8" fill="#f5f5dc"/><path d="M 282.04 512.8 A 25.64 25.64 0 0 1  307.68 538.4399999999999 L 282.04 512.8 A 25.64 25.64 0 0 0 307.68 538.4399999999999" fill="#f5f5dc"/><path d="M 307.68 538.4399999999999 A 25.64 25.64 0 0 1  333.32 512.8 L 307.68 538.4399999999999 A 25.64 25.64 0 0 0 333.32 512.8" fill="#77776e"/><path d="M 333.32 538.4399999999999 A 25.64 25.64 0 0 1  358.96 512.8 L 333.32 538.4399999999999 A 25.64 25.64 0 0 0 358.96 512.8" fill="#f5f5dc"/><path d="M 358.96 538.4399999999999 A 25.64 25.64 0 0 1  384.59999999999997 512.8 L 358.96 538.4399999999999 A 25.64 25.64 0 0 0 384.59999999999997 512.8" fill="#f5f5dc"/><path d="M 384.6 538.4399999999999 A 25.64 25.64 0 0 1  410.24 512.8 L 384.6 538.4399999999999 A 25.64 25.64 0 0 0 410.24 512.8" fill="#f5f5dc"/><path d="M 410.24 538.4399999999999 A 25.64 25.64 0 0 1  435.88 512.8 L 410.24 538.4399999999999 A 25.64 25.64 0 0 0 435.88 512.8" fill="#f5f5dc"/><path d="M 435.88 512.8 A 25.64 25.64 0 0 1  461.52 538.4399999999999 L 435.88 512.8 A 25.64 25.64 0 0 0 461.52 538.4399999999999" fill="#99998c"/><path d="M 461.52 538.4399999999999 A 25.64 25.64 0 0 1  487.15999999999997 512.8 L 461.52 538.4399999999999 A 25.64 25.64 0 0 0 487.15999999999997 512.8" fill="#f5f5dc"/><path d="M 487.16 512.8 A 25.64 25.64 0 0 1  512.8000000000001 538.4399999999999 L 487.16 512.8 A 25.64 25.64 0 0 0 512.8000000000001 538.4399999999999" fill="#a9ada3"/><path d="M 0 538.44 A 25.64 25.64 0 0 1  25.64 564.08 L 0 538.44 A 25.64 25.64 0 0 0 25.64 564.08" fill="#c0c0ae"/><path d="M 25.64 564.08 A 25.64 25.64 0 0 1  51.28 538.44 L 25.64 564.08 A 25.64 25.64 0 0 0 51.28 538.44" fill="#9ba099"/><path d="M 51.28 564.08 A 25.64 25.64 0 0 1  76.92 538.44 L 51.28 564.08 A 25.64 25.64 0 0 0 76.92 538.44" fill="#7f8684"/><path d="M 76.92 538.44 A 25.64 25.64 0 0 1  102.56 564.08 L 76.92 538.44 A 25.64 25.64 0 0 0 102.56 564.08" fill="#d9d9c3"/><path d="M 102.56 564.08 A 25.64 25.64 0 0 1  128.2 538.44 L 102.56 564.08 A 25.64 25.64 0 0 0 128.2 538.44" fill="#b3b6aa"/><path d="M 128.2 564.08 A 25.64 25.64 0 0 1  153.83999999999997 538.44 L 128.2 564.08 A 25.64 25.64 0 0 0 153.83999999999997 538.44" fill="#9e9e90"/><path d="M 153.84 538.44 A 25.64 25.64 0 0 1  179.48000000000002 564.08 L 153.84 538.44 A 25.64 25.64 0 0 0 179.48000000000002 564.08" fill="#f5f5dc"/><path d="M 179.48 564.08 A 25.64 25.64 0 0 1  205.12 538.44 L 179.48 564.08 A 25.64 25.64 0 0 0 205.12 538.44" fill="#f5f5dc"/><path d="M 205.12 538.44 A 25.64 25.64 0 0 1  230.76 564.08 L 205.12 538.44 A 25.64 25.64 0 0 0 230.76 564.08" fill="#a2a294"/><path d="M 230.76 538.44 A 25.64 25.64 0 0 1  256.4 564.08 L 230.76 538.44 A 25.64 25.64 0 0 0 256.4 564.08" fill="#6c6c64"/><path d="M 256.4 538.44 A 25.64 25.64 0 0 1  282.03999999999996 564.08 L 256.4 538.44 A 25.64 25.64 0 0 0 282.03999999999996 564.08" fill="#bfc2b4"/><path d="M 282.04 538.44 A 25.64 25.64 0 0 1  307.68 564.08 L 282.04 538.44 A 25.64 25.64 0 0 0 307.68 564.08" fill="#87877c"/><path d="M 307.68 564.08 A 25.64 25.64 0 0 1  333.32 538.44 L 307.68 564.08 A 25.64 25.64 0 0 0 333.32 538.44" fill="#72797a"/><path d="M 333.32 538.44 A 25.64 25.64 0 0 1  358.96 564.08 L 333.32 538.44 A 25.64 25.64 0 0 0 358.96 564.08" fill="#b8b8a7"/><path d="M 358.96 538.44 A 25.64 25.64 0 0 1  384.59999999999997 564.08 L 358.96 538.44 A 25.64 25.64 0 0 0 384.59999999999997 564.08" fill="#c4c4b1"/><path d="M 384.6 538.44 A 25.64 25.64 0 0 1  410.24 564.08 L 384.6 538.44 A 25.64 25.64 0 0 0 410.24 564.08" fill="#838378"/><path d="M 410.24 538.44 A 25.64 25.64 0 0 1  435.88 564.08 L 410.24 538.44 A 25.64 25.64 0 0 0 435.88 564.08" fill="#ddddc7"/><path d="M 435.88 564.08 A 25.64 25.64 0 0 1  461.52 538.44 L 435.88 564.08 A 25.64 25.64 0 0 0 461.52 538.44" fill="#e9e9d2"/><path d="M 461.52 538.44 A 25.64 25.64 0 0 1  487.15999999999997 564.08 L 461.52 538.44 A 25.64 25.64 0 0 0 487.15999999999997 564.08" fill="#f5f5dc"/><path d="M 487.16 564.08 A 25.64 25.64 0 0 1  512.8000000000001 538.44 L 487.16 564.08 A 25.64 25.64 0 0 0 512.8000000000001 538.44" fill="#8b908c"/><path d="M 0 564.08 A 25.64 25.64 0 0 1  25.64 589.72 L 0 564.08 A 25.64 25.64 0 0 0 25.64 589.72" fill="#555d64"/><path d="M 25.64 589.72 A 25.64 25.64 0 0 1  51.28 564.08 L 25.64 589.72 A 25.64 25.64 0 0 0 51.28 564.08" fill="#7c7c72"/><path d="M 51.28 589.72 A 25.64 25.64 0 0 1  76.92 564.08 L 51.28 589.72 A 25.64 25.64 0 0 0 76.92 564.08" fill="#b6baad"/><path d="M 76.92 589.72 A 25.64 25.64 0 0 1  102.56 564.08 L 76.92 589.72 A 25.64 25.64 0 0 0 102.56 564.08" fill="#c5c5b2"/><path d="M 102.56 564.08 A 25.64 25.64 0 0 1  128.2 589.72 L 102.56 564.08 A 25.64 25.64 0 0 0 128.2 589.72" fill="#f5f5dc"/><path d="M 128.2 589.72 A 25.64 25.64 0 0 1  153.83999999999997 564.08 L 128.2 589.72 A 25.64 25.64 0 0 0 153.83999999999997 564.08" fill="#f5f5dc"/><path d="M 153.84 589.72 A 25.64 25.64 0 0 1  179.48000000000002 564.08 L 153.84 589.72 A 25.64 25.64 0 0 0 179.48000000000002 564.08" fill="#a5a596"/><path d="M 179.48 564.08 A 25.64 25.64 0 0 1  205.12 589.72 L 179.48 564.08 A 25.64 25.64 0 0 0 205.12 589.72" fill="#60605a"/><path d="M 205.12 564.08 A 25.64 25.64 0 0 1  230.76 589.72 L 205.12 564.08 A 25.64 25.64 0 0 0 230.76 589.72" fill="#f5f5dc"/><path d="M 230.76 564.08 A 25.64 25.64 0 0 1  256.4 589.72 L 230.76 564.08 A 25.64 25.64 0 0 0 256.4 589.72" fill="#676f72"/><path d="M 256.4 589.72 A 25.64 25.64 0 0 1  282.03999999999996 564.08 L 256.4 589.72 A 25.64 25.64 0 0 0 282.03999999999996 564.08" fill="#7e8482"/><path d="M 282.04 589.72 A 25.64 25.64 0 0 1  307.68 564.08 L 282.04 589.72 A 25.64 25.64 0 0 0 307.68 564.08" fill="#dadac4"/><path d="M 307.68 589.72 A 25.64 25.64 0 0 1  333.32 564.08 L 307.68 589.72 A 25.64 25.64 0 0 0 333.32 564.08" fill="#969689"/><path d="M 333.32 564.08 A 25.64 25.64 0 0 1  358.96 589.72 L 333.32 564.08 A 25.64 25.64 0 0 0 358.96 589.72" fill="#c1c1af"/><path d="M 358.96 589.72 A 25.64 25.64 0 0 1  384.59999999999997 564.08 L 358.96 589.72 A 25.64 25.64 0 0 0 384.59999999999997 564.08" fill="#909083"/><path d="M 384.6 589.72 A 25.64 25.64 0 0 1  410.24 564.08 L 384.6 589.72 A 25.64 25.64 0 0 0 410.24 564.08" fill="#8b8b7f"/><path d="M 410.24 589.72 A 25.64 25.64 0 0 1  435.88 564.08 L 410.24 589.72 A 25.64 25.64 0 0 0 435.88 564.08" fill="#53534f"/><path d="M 435.88 589.72 A 25.64 25.64 0 0 1  461.52 564.08 L 435.88 589.72 A 25.64 25.64 0 0 0 461.52 564.08" fill="#a6a697"/><path d="M 461.52 564.08 A 25.64 25.64 0 0 1  487.15999999999997 589.72 L 461.52 564.08 A 25.64 25.64 0 0 0 487.15999999999997 589.72" fill="#f0f0d8"/><path d="M 487.16 564.08 A 25.64 25.64 0 0 1  512.8000000000001 589.72 L 487.16 564.08 A 25.64 25.64 0 0 0 512.8000000000001 589.72" fill="#898f8b"/><path d="M 0 615.36 A 25.64 25.64 0 0 1  25.64 589.72 L 0 615.36 A 25.64 25.64 0 0 0 25.64 589.72" fill="#686861"/><path d="M 25.64 615.36 A 25.64 25.64 0 0 1  51.28 589.72 L 25.64 615.36 A 25.64 25.64 0 0 0 51.28 589.72" fill="#949487"/><path d="M 51.28 589.72 A 25.64 25.64 0 0 1  76.92 615.36 L 51.28 589.72 A 25.64 25.64 0 0 0 76.92 615.36" fill="#f5f5dc"/><path d="M 76.92 589.72 A 25.64 25.64 0 0 1  102.56 615.36 L 76.92 589.72 A 25.64 25.64 0 0 0 102.56 615.36" fill="#f5f5dc"/><path d="M 102.56 589.72 A 25.64 25.64 0 0 1  128.2 615.36 L 102.56 589.72 A 25.64 25.64 0 0 0 128.2 615.36" fill="#676f72"/><path d="M 128.2 615.36 A 25.64 25.64 0 0 1  153.83999999999997 589.72 L 128.2 615.36 A 25.64 25.64 0 0 0 153.83999999999997 589.72" fill="#f5f5dc"/><path d="M 153.84 615.36 A 25.64 25.64 0 0 1  179.48000000000002 589.72 L 153.84 615.36 A 25.64 25.64 0 0 0 179.48000000000002 589.72" fill="#ced0bf"/><path d="M 179.48 615.36 A 25.64 25.64 0 0 1  205.12 589.72 L 179.48 615.36 A 25.64 25.64 0 0 0 205.12 589.72" fill="#9a9a8c"/><path d="M 205.12 615.36 A 25.64 25.64 0 0 1  230.76 589.72 L 205.12 615.36 A 25.64 25.64 0 0 0 230.76 589.72" fill="#f1f1d8"/><path d="M 230.76 615.36 A 25.64 25.64 0 0 1  256.4 589.72 L 230.76 615.36 A 25.64 25.64 0 0 0 256.4 589.72" fill="#cbcbb7"/><path d="M 256.4 589.72 A 25.64 25.64 0 0 1  282.03999999999996 615.36 L 256.4 589.72 A 25.64 25.64 0 0 0 282.03999999999996 615.36" fill="#6a7274"/><path d="M 282.04 615.36 A 25.64 25.64 0 0 1  307.68 589.72 L 282.04 615.36 A 25.64 25.64 0 0 0 307.68 589.72" fill="#f5f5dc"/><path d="M 307.68 615.36 A 25.64 25.64 0 0 1  333.32 589.72 L 307.68 615.36 A 25.64 25.64 0 0 0 333.32 589.72" fill="#f5f5dc"/><path d="M 333.32 589.72 A 25.64 25.64 0 0 1  358.96 615.36 L 333.32 589.72 A 25.64 25.64 0 0 0 358.96 615.36" fill="#a0a59c"/><path d="M 358.96 615.36 A 25.64 25.64 0 0 1  384.59999999999997 589.72 L 358.96 615.36 A 25.64 25.64 0 0 0 384.59999999999997 589.72" fill="#62625b"/><path d="M 384.6 615.36 A 25.64 25.64 0 0 1  410.24 589.72 L 384.6 615.36 A 25.64 25.64 0 0 0 410.24 589.72" fill="#bebeac"/><path d="M 410.24 615.36 A 25.64 25.64 0 0 1  435.88 589.72 L 410.24 615.36 A 25.64 25.64 0 0 0 435.88 589.72" fill="#60605a"/><path d="M 435.88 589.72 A 25.64 25.64 0 0 1  461.52 615.36 L 435.88 589.72 A 25.64 25.64 0 0 0 461.52 615.36" fill="#5c5c56"/><path d="M 461.52 589.72 A 25.64 25.64 0 0 1  487.15999999999997 615.36 L 461.52 589.72 A 25.64 25.64 0 0 0 487.15999999999997 615.36" fill="#a0a091"/><path d="M 487.16 615.36 A 25.64 25.64 0 0 1  512.8000000000001 589.72 L 487.16 615.36 A 25.64 25.64 0 0 0 512.8000000000001 589.72" fill="#c3c6b7"/><path d="M 0 615.36 A 25.64 25.64 0 0 1  25.64 641 L 0 615.36 A 25.64 25.64 0 0 0 25.64 641" fill="#f5f5dc"/><path d="M 25.64 615.36 A 25.64 25.64 0 0 1  51.28 641 L 25.64 615.36 A 25.64 25.64 0 0 0 51.28 641" fill="#98988a"/><path d="M 51.28 641 A 25.64 25.64 0 0 1  76.92 615.36 L 51.28 641 A 25.64 25.64 0 0 0 76.92 615.36" fill="#50504c"/><path d="M 76.92 615.36 A 25.64 25.64 0 0 1  102.56 641 L 76.92 615.36 A 25.64 25.64 0 0 0 102.56 641" fill="#929285"/><path d="M 102.56 615.36 A 25.64 25.64 0 0 1  128.2 641 L 102.56 615.36 A 25.64 25.64 0 0 0 128.2 641" fill="#8c928d"/><path d="M 128.2 641 A 25.64 25.64 0 0 1  153.83999999999997 615.36 L 128.2 641 A 25.64 25.64 0 0 0 153.83999999999997 615.36" fill="#cfd1c0"/><path d="M 153.84 641 A 25.64 25.64 0 0 1  179.48000000000002 615.36 L 153.84 641 A 25.64 25.64 0 0 0 179.48000000000002 615.36" fill="#484845"/><path d="M 179.48 641 A 25.64 25.64 0 0 1  205.12 615.36 L 179.48 641 A 25.64 25.64 0 0 0 205.12 615.36" fill="#586066"/><path d="M 205.12 615.36 A 25.64 25.64 0 0 1  230.76 641 L 205.12 615.36 A 25.64 25.64 0 0 0 230.76 641" fill="#949487"/><path d="M 230.76 641 A 25.64 25.64 0 0 1  256.4 615.36 L 230.76 641 A 25.64 25.64 0 0 0 256.4 615.36" fill="#f5f5dc"/><path d="M 256.4 615.36 A 25.64 25.64 0 0 1  282.03999999999996 641 L 256.4 615.36 A 25.64 25.64 0 0 0 282.03999999999996 641" fill="#e6e7d1"/><path d="M 282.04 641 A 25.64 25.64 0 0 1  307.68 615.36 L 282.04 641 A 25.64 25.64 0 0 0 307.68 615.36" fill="#f5f5dc"/><path d="M 307.68 615.36 A 25.64 25.64 0 0 1  333.32 641 L 307.68 615.36 A 25.64 25.64 0 0 0 333.32 641" fill="#acb0a5"/><path d="M 333.32 615.36 A 25.64 25.64 0 0 1  358.96 641 L 333.32 615.36 A 25.64 25.64 0 0 0 358.96 641" fill="#6f6f67"/><path d="M 358.96 615.36 A 25.64 25.64 0 0 1  384.59999999999997 641 L 358.96 615.36 A 25.64 25.64 0 0 0 384.59999999999997 641" fill="#d9d9c4"/><path d="M 384.6 641 A 25.64 25.64 0 0 1  410.24 615.36 L 384.6 641 A 25.64 25.64 0 0 0 410.24 615.36" fill="#f5f5dc"/><path d="M 410.24 615.36 A 25.64 25.64 0 0 1  435.88 641 L 410.24 615.36 A 25.64 25.64 0 0 0 435.88 641" fill="#e3e3cc"/><path d="M 435.88 615.36 A 25.64 25.64 0 0 1  461.52 641 L 435.88 615.36 A 25.64 25.64 0 0 0 461.52 641" fill="#f5f5dc"/><path d="M 461.52 615.36 A 25.64 25.64 0 0 1  487.15999999999997 641 L 461.52 615.36 A 25.64 25.64 0 0 0 487.15999999999997 641" fill="#a8a899"/><path d="M 487.16 641 A 25.64 25.64 0 0 1  512.8000000000001 615.36 L 487.16 641 A 25.64 25.64 0 0 0 512.8000000000001 615.36" fill="#cacdbc"/></g></svg>