<svg height="64px" width="64px" version="1.1" id="Layer_1" xmlns="http://www.w3.org/2000/svg" xmlns:xlink="http://www.w3.org/1999/xlink" viewBox="0 0 512.001 512.001" xml:space="preserve" fill="#000000"><g id="SVGRepo_bgCarrier" stroke-width="0"></g><g id="SVGRepo_tracerCarrier" stroke-linecap="round" stroke-linejoin="round"></g><g id="SVGRepo_iconCarrier"> <path style="fill:#FFC552;" d="M358.635,24.735c-44.074-1.488-78.441-14.26-99.027-23.93c-2.285-1.073-4.93-1.073-7.214,0 c-20.586,9.67-54.953,22.44-99.027,23.93C106.403,26.321,68.785,14.409,45.521,4.506c-5.642-2.401-11.894,1.739-11.894,7.871 v243.285c2.302,25.228,12.121,96.56,68.422,162.503c56.467,66.137,125.811,87.173,151.924,93.59c1.336,0.328,2.718,0.328,4.054,0 c26.113-6.418,95.457-27.453,151.924-93.59c56.301-65.943,66.121-137.276,68.422-162.503V12.377c0-6.131-6.252-10.272-11.894-7.871 C443.218,14.409,405.599,26.321,358.635,24.735z"></path> <path style="fill:#D1CDB2;" d="M256.003,476.935c-31.266-8.578-84.28-29.856-127.934-80.984 C82.747,342.868,70.854,284.856,67.84,254.048V48.538c25.071,7.012,50.865,10.551,77.057,10.551c3.194,0,6.433-0.055,9.626-0.163 c35.062-1.183,69.144-8.675,101.479-22.286c32.336,13.612,66.416,21.102,101.479,22.286c3.194,0.109,6.434,0.163,9.627,0.163 c26.192,0,51.984-3.539,77.055-10.551v205.511c-3.014,30.806-14.909,88.819-60.23,141.902 C340.279,447.081,287.255,468.36,256.003,476.935z"></path> <path style="fill:#E8E6D9;" d="M256.003,459.145c-27.726-8.245-75.618-28.263-114.924-74.3 C98.981,335.536,87.827,281.53,84.946,253.198V70.226c19.69,3.965,39.774,5.969,59.951,5.969c3.402,0,6.836-0.059,10.207-0.172 c34.716-1.173,68.622-8.203,100.897-20.914c32.274,12.711,66.181,19.741,100.902,20.914c3.37,0.113,6.804,0.172,10.205,0.172 c20.179,0,40.261-2.002,59.95-5.968v182.971c-2.88,28.331-14.034,82.337-56.133,131.646 C331.615,430.884,283.726,450.901,256.003,459.145z"></path> <path style="fill:#72CCC5;" d="M256.002,84.604c-66.024,0-119.739,53.715-119.739,119.739s53.715,119.739,119.739,119.739 s119.739-53.715,119.739-119.739S322.025,84.604,256.002,84.604z"></path> <path style="fill:#11BBA3;" d="M290.213,289.872c-66.024,0-119.739-53.715-119.739-119.739c0-24.281,7.272-46.893,19.743-65.785 c-32.478,21.439-53.954,58.254-53.954,99.996c0,66.024,53.715,119.739,119.739,119.739c41.743,0,78.559-21.476,99.996-53.954 C337.106,282.6,314.494,289.872,290.213,289.872z"></path> <g> <path style="fill:#66BF00;" d="M338.775,121.337c-0.064-2.348-1.09-4.566-2.837-6.134c-21.988-19.73-50.377-30.597-79.937-30.597 c-25.121,0-49.17,7.698-69.548,22.261c-3.627,2.593-4.655,7.536-2.361,11.359l13.258,22.097c1.05,1.751,2.693,3.067,4.629,3.714 l21.601,7.199l7.2,21.602c0.602,1.805,1.786,3.357,3.37,4.411l23.768,15.845l16.09,32.181c1.609,3.217,5.169,5.112,8.735,4.657 c3.457-0.442,6.366-3.026,7.212-6.408l8.553-34.211c0.17-0.679,0.256-1.375,0.256-2.074v-22.116l37.508-37.507 C337.933,125.954,338.839,123.683,338.775,121.337z"></path> <path style="fill:#66BF00;" d="M373.065,179.097c-0.983-4.571-5.451-7.507-10.041-6.591l-31.726,6.346 c-3.386,0.678-6.032,3.324-6.709,6.709l-8.553,42.764c-0.445,2.225,0.013,4.534,1.27,6.422l17.106,25.658 c0.088,0.132,0.18,0.261,0.274,0.387l7.355,9.807c1.619,2.159,4.156,3.421,6.841,3.421c0.087,0,0.173-0.001,0.26-0.004 c2.783-0.083,5.35-1.517,6.882-3.84c12.898-19.561,19.715-42.326,19.715-65.832C375.741,195.864,374.841,187.371,373.065,179.097z"></path> <path style="fill:#66BF00;" d="M236.39,215.401c-1.194-1.193-2.714-2.008-4.37-2.339l-39.56-7.911l-23.698-31.597 c-2.32-3.095-6.426-4.246-10.019-2.81l-15.399,6.16c-2.747,1.098-4.731,3.539-5.246,6.451c-1.219,6.89-1.837,13.953-1.837,20.989 c0,22.958,6.518,45.267,18.849,64.514c12.001,18.731,28.912,33.731,48.907,43.382c1.182,0.57,2.453,0.85,3.717,0.85 c1.906,0,3.797-0.637,5.344-1.874l39.713-31.771c1.287-1.031,2.249-2.41,2.771-3.974l8.553-25.658 c1.024-3.074,0.225-6.463-2.067-8.754L236.39,215.401z"></path> </g> <g> <path style="fill:#58AB23;" d="M170.62,176.031l-1.857-2.476c-2.32-3.095-6.426-4.246-10.019-2.81l-15.399,6.16 c-2.747,1.098-4.731,3.539-5.246,6.451c-1.219,6.89-1.837,13.953-1.837,20.989c0,22.958,6.518,45.267,18.849,64.514 c12.001,18.731,28.912,33.731,48.907,43.382c1.182,0.57,2.453,0.85,3.717,0.85c1.906,0,3.797-0.637,5.344-1.874l35.85-28.681 C204.94,266.328,173.006,224.994,170.62,176.031z"></path> <path style="fill:#58AB23;" d="M230.343,127.368h-8.553c-4.723,0-8.553-3.83-8.553-8.553s3.83-8.553,8.553-8.553h8.553 c4.723,0,8.553,3.83,8.553,8.553S235.067,127.368,230.343,127.368z"></path> <path style="fill:#58AB23;" d="M290.213,144.474h-8.553c-4.723,0-8.553-3.83-8.553-8.553c0-4.723,3.83-8.553,8.553-8.553h8.553 c4.723,0,8.553,3.83,8.553,8.553C298.766,140.645,294.936,144.474,290.213,144.474z"></path> <path style="fill:#58AB23;" d="M264.555,178.685h-8.553c-4.723,0-8.553-3.83-8.553-8.553c0-4.723,3.83-8.553,8.553-8.553h8.553 c4.723,0,8.553,3.83,8.553,8.553C273.107,174.856,269.278,178.685,264.555,178.685z"></path> </g> <g> <path style="fill:#8C823F;" d="M238.896,442.21c-2.188,0-4.378-0.835-6.048-2.505c-3.341-3.341-3.341-8.755,0-12.096l68.422-68.422 c3.341-3.339,8.755-3.339,12.096,0c3.34,3.341,3.34,8.755,0,12.096l-68.422,68.422C243.273,441.374,241.085,442.21,238.896,442.21z "></path> <path style="fill:#8C823F;" d="M273.107,442.21c-2.19,0-4.378-0.835-6.048-2.505l-68.422-68.422c-3.341-3.341-3.341-8.755,0-12.096 c3.34-3.339,8.755-3.339,12.095,0l68.422,68.422c3.34,3.341,3.34,8.755,0,12.096C277.484,441.374,275.296,442.21,273.107,442.21z"></path> </g> <path style="fill:#66BF00;" d="M274.574,349.596c9.542-9.542,39.387-14.709,55.667-16.882c5.581-0.745,10.342,4.017,9.597,9.597 c-2.173,16.28-7.34,46.125-16.882,55.667c-13.361,13.361-35.022,13.361-48.382,0C261.214,384.618,261.214,362.957,274.574,349.596z"></path> <g> <path style="fill:#58AB23;" d="M322.956,389.425c-13.361,13.361-35.022,13.361-48.382,0c-5.59-5.59-8.832-12.635-9.744-19.914 c-1.268,10.12,1.974,20.697,9.744,28.467c13.361,13.361,35.022,13.361,48.382,0c9.542-9.542,14.709-39.387,16.882-55.667 c0.21-1.566-0.028-3.062-0.582-4.395C336.808,354.691,331.735,380.647,322.956,389.425z"></path> <path style="fill:#58AB23;" d="M301.27,359.186l-31.981,31.982c1.436,2.43,3.198,4.722,5.286,6.81 c2.088,2.088,4.38,3.85,6.81,5.286l31.982-31.981c3.34-3.341,3.34-8.755,0-12.096C310.026,355.847,304.611,355.847,301.27,359.186z "></path> </g> <path style="fill:#66BF00;" d="M237.428,349.596c-9.542-9.542-39.387-14.709-55.667-16.882c-5.581-0.745-10.342,4.017-9.597,9.597 c2.173,16.28,7.34,46.125,16.882,55.667c13.361,13.361,35.022,13.361,48.382,0C250.789,384.618,250.789,362.957,237.428,349.596z"></path> <g> <path style="fill:#58AB23;" d="M189.046,389.425c13.361,13.361,35.022,13.361,48.382,0c5.59-5.59,8.832-12.635,9.744-19.914 c1.268,10.12-1.974,20.697-9.744,28.467c-13.361,13.361-35.022,13.361-48.382,0c-9.542-9.542-14.709-39.387-16.882-55.667 c-0.21-1.566,0.028-3.062,0.582-4.395C175.195,354.691,180.268,380.647,189.046,389.425z"></path> <path style="fill:#58AB23;" d="M210.733,359.186l31.981,31.982c-1.436,2.43-3.198,4.722-5.286,6.81 c-2.088,2.088-4.38,3.85-6.81,5.286l-31.982-31.981c-3.34-3.341-3.34-8.755,0-12.096 C201.977,355.847,207.392,355.847,210.733,359.186z"></path> </g> </g></svg>